<svg width="24" height="24" viewBox="0 0 24 24" fill="none" xmlns="http://www.w3.org/2000/svg">
<rect width="24" height="24" rx="12" fill="#28F2FF" fill-opacity="0.1"/>
<path d="M16.835 14.1796L15.1366 13.9856C14.9369 13.9622 14.7344 13.9843 14.5445 14.0503C14.3546 14.1163 14.1821 14.2245 14.0399 14.3668L12.8096 15.5972C10.9113 14.6317 9.36842 13.0888 8.403 11.1906L9.64005 9.95353C9.92758 9.666 10.068 9.26479 10.0212 8.8569L9.82728 7.17184C9.78937 6.84564 9.63283 6.54478 9.38745 6.32653C9.14208 6.10828 8.82501 5.98789 8.49662 5.98828H7.33981C6.5842 5.98828 5.95565 6.61684 6.00246 7.37244C6.35685 13.0829 10.9239 17.6433 16.6277 17.9977C17.3833 18.0445 18.0119 17.4159 18.0119 16.6603V15.5035C18.0186 14.8282 17.5104 14.2598 16.835 14.1796Z" fill="#28F2FF"/>
</svg>
