<svg xmlns="http://www.w3.org/2000/svg" width="76" height="78" viewBox="0 0 76 78" fill="none">
<path d="M75.5814 39.1514C75.5814 42.1903 73.1071 44.6628 70.0657 44.6628C67.6847 44.6628 65.6521 43.145 64.8832 41.0264H43.5299V37.2764H64.8863C65.6591 35.1604 67.6963 33.6401 70.0658 33.6401C73.1072 33.6401 75.5816 36.1125 75.5816 39.1514H75.5814ZM43.5299 18.1025V21.8525H52.8716C53.4375 21.8525 53.9733 21.5968 54.3293 21.1568L56.9982 17.8581C57.5638 18.0546 58.1705 18.1629 58.8022 18.1629C61.8413 18.1629 64.3136 15.6906 64.3136 12.6517C64.3136 9.61277 61.8413 7.1359 58.8022 7.1359C55.7632 7.1359 53.291 9.61027 53.291 12.6517C53.291 13.6923 53.5811 14.6664 54.0844 15.4976L51.9768 18.1026L43.5299 18.1025ZM59.2496 24.0243H54.0764C53.5108 24.0243 52.9754 24.2798 52.6193 24.7193L49.6741 28.3561H43.5299V32.1061H50.5685C51.1341 32.1061 51.6696 31.8506 52.0257 31.4111L54.9708 27.7743H59.2491C60.0182 29.8954 62.0529 31.4151 64.4363 31.4151C67.4752 31.4151 69.9475 28.9407 69.9475 25.8993C69.9475 22.8579 67.4752 20.3879 64.4363 20.3879C62.0535 20.3879 60.0189 21.9057 59.2496 24.0243ZM58.8022 60.1396C58.1705 60.1396 57.5638 60.2479 56.9982 60.4445L54.3293 57.1459C53.9733 56.7059 53.4375 56.4503 52.8716 56.4503H43.5299V60.2003H51.9768L54.0843 62.8051C53.581 63.6364 53.2908 64.6104 53.2908 65.6511C53.2908 68.6925 55.7632 71.1668 58.8021 71.1668C61.841 71.1668 64.3135 68.6925 64.3135 65.6511C64.3135 62.6096 61.8411 60.1396 58.8021 60.1396H58.8022ZM64.4361 46.8876C62.0529 46.8876 60.0182 48.4073 59.2489 50.5284H54.9707L52.0255 46.8917C51.6696 46.4521 51.1339 46.1967 50.5683 46.1967H43.5297V49.9467H49.674L52.6191 53.5834C52.975 54.0229 53.5105 54.2784 54.0763 54.2784H59.2494C60.0189 56.397 62.0533 57.9146 64.436 57.9146C67.4749 57.9146 69.9472 55.4423 69.9472 52.4034C69.9472 49.3645 67.4749 46.8876 64.436 46.8876H64.4361ZM31.7485 61.2867C32.5919 61.8292 33.5674 62.1159 34.5696 62.1159C37.4425 62.1159 39.7797 59.7787 39.7797 56.9057V41.0264H32.8177C32.3147 43.6409 30.7268 46.0314 28.2458 47.4629C27.9507 47.6332 27.6285 47.7142 27.3105 47.7142C26.6622 47.7142 26.0319 47.3778 25.6847 46.7759C25.1672 45.879 25.4747 44.7323 26.3718 44.2148C29.1152 42.6318 30.0591 39.1117 28.4758 36.3678C27.9208 35.4109 27.1082 34.6359 26.1277 34.1306C25.2072 33.6561 24.8457 32.5253 25.3202 31.6048C25.7947 30.6843 26.9252 30.3228 27.846 30.7973C29.4644 31.6317 30.8047 32.9086 31.7219 34.49C32.2358 35.3807 32.5864 36.3209 32.7877 37.2764H39.7799V21.397C39.7799 18.5268 37.4427 16.1917 34.5697 16.1917C33.5675 16.1917 32.5921 16.4784 31.7486 17.0209C30.8777 17.5809 29.7175 17.3292 29.1574 16.4581C28.5972 15.5871 28.8491 14.427 29.7202 13.8668C31.1699 12.9345 32.8469 12.4417 34.5699 12.4417C36.5122 12.4417 38.3107 13.0646 39.78 14.1182V10.9742C39.78 5.14434 35.0371 0.401367 29.2072 0.401367C24.2521 0.401367 19.905 3.91277 18.8711 8.75059C18.6891 9.60215 17.9447 10.2164 17.0741 10.2334C11.3586 10.3446 6.70879 15.0878 6.70879 20.8065C6.70879 22.8109 7.2716 24.7609 8.33645 26.4459C8.63988 26.9261 8.70926 27.5178 8.5252 28.0551C8.34113 28.5925 7.92348 29.0173 7.38941 29.2107C3.22004 30.7195 0.418945 34.7153 0.418945 39.1537C0.418945 43.1226 2.65988 46.7361 6.11504 48.5353C7.98207 46.2087 10.5243 44.5159 13.4194 43.7061C14.4171 43.4271 15.4513 44.0095 15.7302 45.0067C16.0091 46.0039 15.4268 47.0386 14.4296 47.3175C11.906 48.0234 9.74207 49.637 8.3366 51.8614C8.3366 51.8614 8.3366 51.8614 8.33645 51.8615C7.27176 53.5465 6.70895 55.4965 6.70895 57.5009C6.70895 63.2211 11.3582 67.962 17.073 68.0692C17.9443 68.0854 18.6896 68.7 18.8714 69.5523C19.9046 74.39 24.2514 77.9012 29.2075 77.9012C35.0374 77.9012 39.7804 73.1604 39.7804 67.3332V64.1882C38.311 65.2425 36.5125 65.8657 34.5702 65.8657C32.8472 65.8657 31.1702 65.3729 29.7205 64.4406C28.8496 63.8804 28.5975 62.7203 29.1577 61.8493C29.7178 60.9784 30.878 60.7265 31.7489 61.2865L31.7485 61.2867Z" fill="#fc5b3f"/>
<defs fill="#fc5b3f">
<linearGradient id="paint0_linear_6366_25494" x1="38.0003" y1="-14.1228" x2="38.0004" y2="79.4115" gradientUnits="userSpaceOnUse" fill="#fc5b3f">
<stop stop-color="#fc5b3f" fill="#fc5b3f"/>
<stop offset="1" stop-color="#fc5b3f" fill="#fc5b3f"/>
</linearGradient>
</defs>
</svg>