<svg xmlns="http://www.w3.org/2000/svg" width="80" height="81" viewBox="0 0 80 81" fill="none">
<path d="M40.0001 77.1517L38.6668 76.8184C3.66679 62.485 6.66679 17.1517 6.66679 16.485L7.00012 13.485H10.0001C25.3335 13.485 38.0001 4.15169 38.0001 4.15169L40.0001 2.81836L42.0001 4.15169C42.0001 4.15169 54.6668 13.485 70.0001 13.485H73.0001L73.3335 16.485C73.3335 16.8184 76.3335 62.485 41.3335 76.485L40.0001 77.1517ZM13.3335 20.1517C13.3335 29.485 15.3335 59.1517 40.0001 70.1517C64.6668 59.485 66.6668 29.8184 66.6668 20.1517C54.3335 19.1517 44.0001 13.485 40.0001 10.8184C36.0001 13.485 25.6668 19.1517 13.3335 20.1517Z" fill="#fc5b3f"/>
<path d="M40.0005 63.485C18.0005 54.1517 20.0005 23.8184 20.0005 23.8184C31.0005 23.8184 40.0005 16.8184 40.0005 16.8184C40.0005 16.8184 49.0005 23.8184 60.0005 23.8184C60.0005 23.8184 62.0005 54.1517 40.0005 63.485Z" fill="url(#paint1_linear_6366_25457)"/>
<defs fill="#fc5b3f">
<linearGradient id="paint0_linear_6366_25457" x1="40.0001" y1="2.81836" x2="40.0001" y2="77.1517" gradientUnits="userSpaceOnUse" fill="#fc5b3f">
<stop stop-color="#fc5b3f" fill="#fc5b3f"/>
<stop offset="1" stop-color="#fc5b3f" fill="#fc5b3f"/>
</linearGradient>
<linearGradient id="paint1_linear_6366_25457" x1="40.0005" y1="16.8184" x2="40.0005" y2="63.485" gradientUnits="userSpaceOnUse" fill="#fc5b3f">
<stop stop-color="#fc5b3f" fill="#fc5b3f"/>
<stop offset="1" stop-color="#fc5b3f" fill="#fc5b3f"/>
</linearGradient>
</defs>
</svg>