<svg xmlns="http://www.w3.org/2000/svg" width="80" height="80" viewBox="0 0 80 80" fill="none">
<path fill-rule="evenodd" clip-rule="evenodd" d="M68.2834 50.4509C69.0667 50.0009 69.6167 49.3009 69.8667 48.4342C70.0999 47.5842 70 46.6842 69.5667 45.9009L66.2667 40.0009L69.5667 34.1009C70.4667 32.4842 69.8834 30.4509 68.2834 29.5509L62.9167 26.5509V20.4175C62.9167 18.5842 61.4167 17.0842 59.5834 17.0842H53.4334L50.45 11.7175C50 10.9342 49.3 10.3842 48.4334 10.1342C47.5832 9.90104 46.6834 10.001 45.9 10.4344L40 13.7344L34.1 10.4344C33.3167 10.0009 32.4167 9.90088 31.5667 10.1342C30.7 10.3842 30 10.9342 29.55 11.7175L26.5667 17.0842H20.4167C18.5834 17.0842 17.0834 18.5842 17.0834 20.4175V26.5509L11.7167 29.5509C10.1167 30.4509 9.53338 32.4842 10.4334 34.1009L13.7334 40.0009L10.4334 45.9009C10 46.6842 9.90004 47.5842 10.1334 48.4342C10.3834 49.3009 10.9334 50.0009 11.7167 50.4509L17.0834 53.4509V59.5842C17.0834 61.4175 18.5834 62.9175 20.4167 62.9175H26.5667L29.55 68.2842C30 69.0675 30.7 69.6175 31.5667 69.8675C31.8667 69.9509 32.1665 69.9842 32.4667 69.9842C33.0334 69.9842 33.5834 69.8509 34.1 69.5675L40 66.2675L45.9 69.5675C46.6834 70.0009 47.5834 70.1009 48.4334 69.8675C49.3 69.6175 50 69.0675 50.45 68.2842L53.4334 62.9175H59.5834C61.4167 62.9175 62.9167 61.4175 62.9167 59.5842V53.4509L68.2834 50.4509ZM35.4886 49.5127C35.8141 49.8382 36.2404 50.0011 36.6669 50.0011C37.0932 50.0011 37.5201 49.8382 37.8456 49.5127L54.5122 32.8461C55.1632 32.1949 55.1634 31.1402 54.5122 30.4892C53.8611 29.8382 52.8064 29.8382 52.1554 30.4892L36.6671 45.9776L29.5121 38.8226C28.8609 38.1716 27.8062 38.1714 27.1552 38.8226C26.5042 39.4737 26.5042 40.5284 27.1552 41.1794L35.4886 49.5127Z" fill="#ffffff"/>
<path fill-rule="evenodd" clip-rule="evenodd" d="M68.2834 50.4509C69.0667 50.0009 69.6167 49.3009 69.8667 48.4342C70.0999 47.5842 70 46.6842 69.5667 45.9009L66.2667 40.0009L69.5667 34.1009C70.4667 32.4842 69.8834 30.4509 68.2834 29.5509L62.9167 26.5509V20.4175C62.9167 18.5842 61.4167 17.0842 59.5834 17.0842H53.4334L50.45 11.7175C50 10.9342 49.3 10.3842 48.4334 10.1342C47.5832 9.90104 46.6834 10.001 45.9 10.4344L40 13.7344L34.1 10.4344C33.3167 10.0009 32.4167 9.90088 31.5667 10.1342C30.7 10.3842 30 10.9342 29.55 11.7175L26.5667 17.0842H20.4167C18.5834 17.0842 17.0834 18.5842 17.0834 20.4175V26.5509L11.7167 29.5509C10.1167 30.4509 9.53338 32.4842 10.4334 34.1009L13.7334 40.0009L10.4334 45.9009C10 46.6842 9.90004 47.5842 10.1334 48.4342C10.3834 49.3009 10.9334 50.0009 11.7167 50.4509L17.0834 53.4509V59.5842C17.0834 61.4175 18.5834 62.9175 20.4167 62.9175H26.5667L29.55 68.2842C30 69.0675 30.7 69.6175 31.5667 69.8675C31.8667 69.9509 32.1665 69.9842 32.4667 69.9842C33.0334 69.9842 33.5834 69.8509 34.1 69.5675L40 66.2675L45.9 69.5675C46.6834 70.0009 47.5834 70.1009 48.4334 69.8675C49.3 69.6175 50 69.0675 50.45 68.2842L53.4334 62.9175H59.5834C61.4167 62.9175 62.9167 61.4175 62.9167 59.5842V53.4509L68.2834 50.4509ZM35.4886 49.5127C35.8141 49.8382 36.2404 50.0011 36.6669 50.0011C37.0932 50.0011 37.5201 49.8382 37.8456 49.5127L54.5122 32.8461C55.1632 32.1949 55.1634 31.1402 54.5122 30.4892C53.8611 29.8382 52.8064 29.8382 52.1554 30.4892L36.6671 45.9776L29.5121 38.8226C28.8609 38.1716 27.8062 38.1714 27.1552 38.8226C26.5042 39.4737 26.5042 40.5284 27.1552 41.1794L35.4886 49.5127Z" fill="url(#paint0_linear_11792_25013)"/>
<defs fill="#fc5b3f">
<linearGradient id="paint0_linear_11792_25013" x1="40" y1="-1.22876" x2="40.0001" y2="71.1589" gradientUnits="userSpaceOnUse" fill="#fc5b3f">
<stop stop-color="#fc5b3f" fill="#fc5b3f"/>
<stop offset="1" stop-color="#fc5b3f" fill="#fc5b3f"/>
</linearGradient>
</defs>
</svg>