<svg xmlns="http://www.w3.org/2000/svg" width="64" height="60" viewBox="0 0 64 60" fill="none">
<path d="M22.8465 36.9665C22.8465 37.5102 22.4124 37.951 21.8768 37.951H11.992C11.4565 37.951 11.0223 37.5102 11.0223 36.9665C11.0223 36.4228 11.4565 35.982 11.992 35.982H21.8768C22.4124 35.982 22.8465 36.4228 22.8465 36.9665ZM22.8465 32.7492C22.8465 33.2929 22.4124 33.7337 21.8768 33.7337H11.992C11.4565 33.7337 11.0223 33.2929 11.0223 32.7492C11.0223 32.2055 11.4565 31.7647 11.992 31.7647H21.8768C22.4124 31.7647 22.8465 32.2055 22.8465 32.7492ZM38.6977 19.366V36.9686C38.6977 37.1854 38.5234 37.3624 38.3098 37.3624C36.752 37.3624 35.194 37.3624 33.636 37.3624C33.4224 37.3624 33.2481 37.1854 33.2481 36.9686C33.2481 31.101 33.2481 25.2334 33.2481 19.366C33.2481 19.1491 33.4223 18.9722 33.636 18.9722H38.3098C38.5234 18.9722 38.6977 19.1491 38.6977 19.366ZM25.0952 36.9686V27.6202C25.0952 27.4034 25.2695 27.2264 25.4831 27.2264H30.1567C30.3703 27.2264 30.5446 27.4034 30.5446 27.6202V36.9686C30.5446 37.1854 30.3703 37.3624 30.1567 37.3624H25.4831C25.2693 37.3624 25.0952 37.1855 25.0952 36.9686ZM22.8465 28.5317C22.8465 29.0754 22.4124 29.5162 21.8768 29.5162H11.992C11.4565 29.5162 11.0223 29.0754 11.0223 28.5317C11.0223 27.988 11.4565 27.5472 11.992 27.5472H21.8768C22.4124 27.5472 22.8465 27.988 22.8465 28.5317ZM6.86492 28.5317C6.86492 27.988 7.29909 27.5472 7.83462 27.5472H8.74484C9.28037 27.5472 9.71453 27.988 9.71453 28.5317C9.71453 29.0754 9.28037 29.5162 8.74484 29.5162H7.83462C7.29909 29.5162 6.86492 29.0754 6.86492 28.5317ZM27.1343 21.7412C26.7578 21.3569 26.7594 20.7352 27.138 20.353L35.2911 12.0987C35.5928 11.7941 36.0429 11.7333 36.4039 11.9158L36.4047 11.9142L43.9368 15.7269L50.2253 9.35896H48.5016C47.966 9.35896 47.5319 8.91817 47.5319 8.37447C47.5319 7.83077 47.966 7.38998 48.5016 7.38998H52.5667C53.1022 7.38998 53.5363 7.83077 53.5363 8.37447V12.5016C53.5363 13.0453 53.1022 13.4861 52.5667 13.4861C52.0311 13.4861 51.597 13.0453 51.597 12.5016V10.7429L44.8551 17.5699C44.5722 17.8984 44.0968 18.0061 43.6941 17.8025L36.1619 13.9897L28.5017 21.745C28.1231 22.1274 27.5109 22.1257 27.1343 21.7412ZM6.86492 32.7492C6.86492 32.2055 7.29909 31.7647 7.83462 31.7647H8.74484C9.28037 31.7647 9.71453 32.2055 9.71453 32.7492C9.71453 33.2929 9.28037 33.7337 8.74484 33.7337H7.83462C7.29909 33.7337 6.86492 33.2929 6.86492 32.7492ZM6.86492 36.9665C6.86492 36.4228 7.29909 35.982 7.83462 35.982H8.74484C9.28037 35.982 9.71453 36.4228 9.71453 36.9665C9.71453 37.5102 9.28037 37.951 8.74484 37.951H7.83462C7.29909 37.951 6.86492 37.5102 6.86492 36.9665ZM46.8507 23.4931V36.9686C46.8507 37.1854 46.6765 37.3624 46.4629 37.3624C44.905 37.3624 43.347 37.3624 41.7892 37.3624C41.5756 37.3624 41.4013 37.1854 41.4013 36.9686C41.4013 32.4768 41.4013 27.9849 41.4013 23.4931C41.4013 23.2763 41.5756 23.0993 41.7892 23.0993H46.4629C46.6765 23.0993 46.8507 23.2763 46.8507 23.4931ZM39.9582 48.7152L42.3474 53.6483H21.6525L24.0416 48.7152H39.9582ZM49.9421 14.8451H54.6159C54.8295 14.8451 55.0038 15.022 55.0038 15.2389V36.9686C55.0038 37.1854 54.8295 37.3624 54.6159 37.3624H49.9421C49.7285 37.3624 49.5543 37.1854 49.5543 36.9686V15.2389C49.5543 15.022 49.7284 14.8451 49.9421 14.8451ZM50.4814 57.8087C50.4814 59.0139 49.5102 60 48.323 60H15.6767C14.4897 60 13.5183 59.0139 13.5183 57.8087C13.5183 56.6034 14.4896 55.6172 15.6767 55.6172H48.3231C49.5102 55.6173 50.4814 56.6034 50.4814 57.8087ZM61.0267 0H2.97321C1.33779 0 0 1.35847 0 3.01858V43.7278C0 45.3878 1.33779 46.7463 2.97321 46.7463H61.0268C62.6621 46.7463 64 45.3878 64 43.7278V3.01858C63.9999 1.35847 62.6621 0 61.0267 0ZM60.0815 42.7681H3.91834V3.97813H60.0815V42.7681Z" fill="#fc5b3f"/>
<path d="M22.8465 36.9665C22.8465 37.5102 22.4124 37.951 21.8768 37.951H11.992C11.4565 37.951 11.0223 37.5102 11.0223 36.9665C11.0223 36.4228 11.4565 35.982 11.992 35.982H21.8768C22.4124 35.982 22.8465 36.4228 22.8465 36.9665ZM22.8465 32.7492C22.8465 33.2929 22.4124 33.7337 21.8768 33.7337H11.992C11.4565 33.7337 11.0223 33.2929 11.0223 32.7492C11.0223 32.2055 11.4565 31.7647 11.992 31.7647H21.8768C22.4124 31.7647 22.8465 32.2055 22.8465 32.7492ZM38.6977 19.366V36.9686C38.6977 37.1854 38.5234 37.3624 38.3098 37.3624C36.752 37.3624 35.194 37.3624 33.636 37.3624C33.4224 37.3624 33.2481 37.1854 33.2481 36.9686C33.2481 31.101 33.2481 25.2334 33.2481 19.366C33.2481 19.1491 33.4223 18.9722 33.636 18.9722H38.3098C38.5234 18.9722 38.6977 19.1491 38.6977 19.366ZM25.0952 36.9686V27.6202C25.0952 27.4034 25.2695 27.2264 25.4831 27.2264H30.1567C30.3703 27.2264 30.5446 27.4034 30.5446 27.6202V36.9686C30.5446 37.1854 30.3703 37.3624 30.1567 37.3624H25.4831C25.2693 37.3624 25.0952 37.1855 25.0952 36.9686ZM22.8465 28.5317C22.8465 29.0754 22.4124 29.5162 21.8768 29.5162H11.992C11.4565 29.5162 11.0223 29.0754 11.0223 28.5317C11.0223 27.988 11.4565 27.5472 11.992 27.5472H21.8768C22.4124 27.5472 22.8465 27.988 22.8465 28.5317ZM6.86492 28.5317C6.86492 27.988 7.29909 27.5472 7.83462 27.5472H8.74484C9.28037 27.5472 9.71453 27.988 9.71453 28.5317C9.71453 29.0754 9.28037 29.5162 8.74484 29.5162H7.83462C7.29909 29.5162 6.86492 29.0754 6.86492 28.5317ZM27.1343 21.7412C26.7578 21.3569 26.7594 20.7352 27.138 20.353L35.2911 12.0987C35.5928 11.7941 36.0429 11.7333 36.4039 11.9158L36.4047 11.9142L43.9368 15.7269L50.2253 9.35896H48.5016C47.966 9.35896 47.5319 8.91817 47.5319 8.37447C47.5319 7.83077 47.966 7.38998 48.5016 7.38998H52.5667C53.1022 7.38998 53.5363 7.83077 53.5363 8.37447V12.5016C53.5363 13.0453 53.1022 13.4861 52.5667 13.4861C52.0311 13.4861 51.597 13.0453 51.597 12.5016V10.7429L44.8551 17.5699C44.5722 17.8984 44.0968 18.0061 43.6941 17.8025L36.1619 13.9897L28.5017 21.745C28.1231 22.1274 27.5109 22.1257 27.1343 21.7412ZM6.86492 32.7492C6.86492 32.2055 7.29909 31.7647 7.83462 31.7647H8.74484C9.28037 31.7647 9.71453 32.2055 9.71453 32.7492C9.71453 33.2929 9.28037 33.7337 8.74484 33.7337H7.83462C7.29909 33.7337 6.86492 33.2929 6.86492 32.7492ZM6.86492 36.9665C6.86492 36.4228 7.29909 35.982 7.83462 35.982H8.74484C9.28037 35.982 9.71453 36.4228 9.71453 36.9665C9.71453 37.5102 9.28037 37.951 8.74484 37.951H7.83462C7.29909 37.951 6.86492 37.5102 6.86492 36.9665ZM46.8507 23.4931V36.9686C46.8507 37.1854 46.6765 37.3624 46.4629 37.3624C44.905 37.3624 43.347 37.3624 41.7892 37.3624C41.5756 37.3624 41.4013 37.1854 41.4013 36.9686C41.4013 32.4768 41.4013 27.9849 41.4013 23.4931C41.4013 23.2763 41.5756 23.0993 41.7892 23.0993H46.4629C46.6765 23.0993 46.8507 23.2763 46.8507 23.4931ZM39.9582 48.7152L42.3474 53.6483H21.6525L24.0416 48.7152H39.9582ZM49.9421 14.8451H54.6159C54.8295 14.8451 55.0038 15.022 55.0038 15.2389V36.9686C55.0038 37.1854 54.8295 37.3624 54.6159 37.3624H49.9421C49.7285 37.3624 49.5543 37.1854 49.5543 36.9686V15.2389C49.5543 15.022 49.7284 14.8451 49.9421 14.8451ZM50.4814 57.8087C50.4814 59.0139 49.5102 60 48.323 60H15.6767C14.4897 60 13.5183 59.0139 13.5183 57.8087C13.5183 56.6034 14.4896 55.6172 15.6767 55.6172H48.3231C49.5102 55.6173 50.4814 56.6034 50.4814 57.8087ZM61.0267 0H2.97321C1.33779 0 0 1.35847 0 3.01858V43.7278C0 45.3878 1.33779 46.7463 2.97321 46.7463H61.0268C62.6621 46.7463 64 45.3878 64 43.7278V3.01858C63.9999 1.35847 62.6621 0 61.0267 0ZM60.0815 42.7681H3.91834V3.97813H60.0815V42.7681Z" fill="url(#paint0_linear_10733_16125)"/>
<path fill-rule="evenodd" clip-rule="evenodd" d="M16 24C20.9706 24 25 19.9706 25 15C25 10.0294 20.9706 6 16 6C11.0294 6 7 10.0294 7 15C7 19.9706 11.0294 24 16 24ZM16.3961 21.7422C16.5484 21.9062 16.7617 22 16.9867 22C17.1906 22 17.3875 21.9227 17.5375 21.7867C17.8633 21.4844 17.882 20.9734 17.5797 20.6477L14.3383 17.1555H14.7133C16.3773 17.1531 17.8211 16.0047 18.1984 14.3828H19.5133C19.9469 14.3758 20.2984 14.0266 20.3055 13.5906C20.3148 13.1453 19.9586 12.7773 19.5133 12.7703H18.1961C18.1023 12.3578 17.9336 11.9664 17.7016 11.6148H19.5109C19.9562 11.6148 20.3172 11.2539 20.3172 10.8086C20.3172 10.3633 19.9562 10.0023 19.5109 10.0023H12.4867C12.0414 10.0023 11.6805 10.3633 11.6805 10.8086C11.6805 11.2539 12.0414 11.6148 12.4867 11.6148H14.7133C15.4844 11.6148 16.1828 12.0672 16.5016 12.7703H13.232C12.7984 12.7773 12.4469 13.1266 12.4398 13.5625C12.4305 14.0078 12.7867 14.3758 13.232 14.3828H16.5039C16.1875 15.0859 15.4867 15.5406 14.7133 15.5406H12.4867C12.2828 15.5406 12.0883 15.618 11.9383 15.7563C11.6125 16.0586 11.5938 16.5695 11.8961 16.8953L16.3961 21.7422Z" fill="#fc5b3f"/>
<path fill-rule="evenodd" clip-rule="evenodd" d="M16 24C20.9706 24 25 19.9706 25 15C25 10.0294 20.9706 6 16 6C11.0294 6 7 10.0294 7 15C7 19.9706 11.0294 24 16 24ZM16.3961 21.7422C16.5484 21.9062 16.7617 22 16.9867 22C17.1906 22 17.3875 21.9227 17.5375 21.7867C17.8633 21.4844 17.882 20.9734 17.5797 20.6477L14.3383 17.1555H14.7133C16.3773 17.1531 17.8211 16.0047 18.1984 14.3828H19.5133C19.9469 14.3758 20.2984 14.0266 20.3055 13.5906C20.3148 13.1453 19.9586 12.7773 19.5133 12.7703H18.1961C18.1023 12.3578 17.9336 11.9664 17.7016 11.6148H19.5109C19.9562 11.6148 20.3172 11.2539 20.3172 10.8086C20.3172 10.3633 19.9562 10.0023 19.5109 10.0023H12.4867C12.0414 10.0023 11.6805 10.3633 11.6805 10.8086C11.6805 11.2539 12.0414 11.6148 12.4867 11.6148H14.7133C15.4844 11.6148 16.1828 12.0672 16.5016 12.7703H13.232C12.7984 12.7773 12.4469 13.1266 12.4398 13.5625C12.4305 14.0078 12.7867 14.3758 13.232 14.3828H16.5039C16.1875 15.0859 15.4867 15.5406 14.7133 15.5406H12.4867C12.2828 15.5406 12.0883 15.618 11.9383 15.7563C11.6125 16.0586 11.5938 16.5695 11.8961 16.8953L16.3961 21.7422Z" fill="url(#paint1_linear_10733_16125)"/>
<defs fill="#fc5b3f">
<linearGradient id="paint0_linear_10733_16125" x1="32" y1="-11.2445" x2="32.0001" y2="61.1692" gradientUnits="userSpaceOnUse" fill="#fc5b3f">
<stop stop-color="#fc5b3f" fill="#fc5b3f"/>
<stop offset="1" stop-color="#fc5b3f" fill="#fc5b3f"/>
</linearGradient>
<linearGradient id="paint1_linear_10733_16125" x1="16" y1="2.62664" x2="16" y2="24.3508" gradientUnits="userSpaceOnUse" fill="#fc5b3f">
<stop stop-color="#fc5b3f" fill="#fc5b3f"/>
<stop offset="1" stop-color="#fc5b3f" fill="#fc5b3f"/>
</linearGradient>
</defs>
</svg>