<svg width="24" height="24" viewBox="0 0 24 24" fill="none" xmlns="http://www.w3.org/2000/svg">
<rect width="24" height="24" rx="12" fill="#FDFF8B" fill-opacity="0.18"/>
<path d="M17.332 7H6.66536C5.93203 7 5.3387 7.5625 5.3387 8.25L5.33203 15.75C5.33203 16.4375 5.93203 17 6.66536 17H17.332C18.0654 17 18.6654 16.4375 18.6654 15.75V8.25C18.6654 7.5625 18.0654 7 17.332 7ZM17.0654 9.65625L12.352 12.4187C12.1387 12.5438 11.8587 12.5438 11.6454 12.4187L6.93203 9.65625C6.86518 9.62107 6.80664 9.57354 6.75996 9.51653C6.71327 9.45953 6.67941 9.39424 6.66041 9.32461C6.64142 9.25498 6.6377 9.18246 6.64947 9.11144C6.66124 9.04042 6.68826 8.97238 6.72889 8.91144C6.76952 8.85049 6.82291 8.79791 6.88585 8.75687C6.94878 8.71583 7.01995 8.68719 7.09503 8.67269C7.17011 8.65818 7.24755 8.6581 7.32267 8.67247C7.39778 8.68683 7.46901 8.71533 7.53203 8.75625L11.9987 11.375L16.4654 8.75625C16.5284 8.71533 16.5996 8.68683 16.6747 8.67247C16.7498 8.6581 16.8273 8.65818 16.9024 8.67269C16.9775 8.68719 17.0486 8.71583 17.1115 8.75687C17.1745 8.79791 17.2279 8.85049 17.2685 8.91144C17.3091 8.97238 17.3362 9.04042 17.3479 9.11144C17.3597 9.18246 17.356 9.25498 17.337 9.32461C17.318 9.39424 17.2841 9.45953 17.2374 9.51653C17.1908 9.57354 17.1322 9.62107 17.0654 9.65625Z" fill="#FDFF8B"/>
</svg>
