<svg width="144" height="50" viewBox="0 0 144 50" fill="none" xmlns="http://www.w3.org/2000/svg">
<g clip-path="url(#clip0_13381_46734)">
<path opacity="0.952" fill-rule="evenodd" clip-rule="evenodd" d="M75.8102 17.9341C76.3795 17.9341 76.9489 17.9341 77.5182 17.9341C77.9847 18.2766 78.5102 18.4301 79.0949 18.3946C79.2539 18.2579 79.3852 18.1044 79.489 17.9341C79.7518 17.9341 80.0146 17.9341 80.2774 17.9341C80.2774 19.5569 80.2774 21.1797 80.2774 22.8025C79.927 22.8025 79.5767 22.8025 79.2263 22.8025C79.0992 21.3447 78.5299 20.0947 77.5182 19.0525C76.3351 18.4819 75.5905 18.8328 75.2847 20.1051C75.3236 20.3536 75.3892 20.5948 75.4817 20.8288C75.7527 21.1447 75.9717 21.4956 76.1387 21.8815C77.4529 23.1538 78.7229 24.4695 79.9489 25.8288C81.0783 27.5175 81.2972 29.3158 80.6058 31.2236C80.1904 32.0572 79.5553 32.6274 78.7007 32.9341C78.1314 32.9341 77.562 32.9341 76.9927 32.9341C76.4656 32.7045 75.9182 32.4851 75.3504 32.2762C74.9678 32.375 74.683 32.5943 74.4963 32.9341C74.1898 32.9341 73.8832 32.9341 73.5766 32.9341C73.5343 31.235 73.5781 29.5464 73.708 27.8683C74.0236 27.7612 74.3301 27.7831 74.6277 27.9341C74.9462 29.2956 75.5593 30.5018 76.4671 31.5525C77.056 31.985 77.713 32.1166 78.4379 31.9472C78.7664 31.7937 79.0072 31.5525 79.1606 31.2236C79.3527 30.3068 79.1775 29.4734 78.635 28.7236C77.369 27.3239 76.0551 25.9643 74.6934 24.6446C73.5685 23.1638 73.3057 21.541 73.9051 19.7762C74.3561 18.9513 74.9911 18.3373 75.8102 17.9341Z" fill="white"/>
<path opacity="0.948" fill-rule="evenodd" clip-rule="evenodd" d="M109.445 17.9341C110.102 17.9341 110.759 17.9341 111.416 17.9341C111.394 22.4957 111.416 27.0571 111.482 31.6183C111.635 31.8016 111.832 31.9113 112.073 31.9472C112.248 32.2104 112.248 32.4736 112.073 32.7367C111.304 32.7595 110.56 32.8253 109.839 32.9341C109.62 32.9341 109.401 32.9341 109.182 32.9341C109.092 32.6822 109.027 32.4191 108.985 32.1446C108.623 32.4447 108.251 32.7079 107.868 32.9341C107.387 32.9341 106.905 32.9341 106.423 32.9341C104.954 32.0117 104.232 30.652 104.255 28.8551C103.962 26.7568 104.466 24.8928 105.766 23.263C106.938 22.41 108.011 22.5196 108.985 23.592C109.073 22.1885 109.073 20.785 108.985 19.3815C108.818 19.0232 108.533 18.8478 108.131 18.8551C108.131 18.592 108.131 18.3288 108.131 18.0657C108.597 18.1068 109.034 18.063 109.445 17.9341ZM107.737 23.9867C108.271 24.0162 108.643 24.2794 108.854 24.7762C109.114 26.8387 109.114 28.9001 108.854 30.9604C108.168 32.0428 107.555 31.9988 107.014 30.8288C106.754 28.8118 106.754 26.7943 107.014 24.7762C107.11 24.3563 107.351 24.0932 107.737 23.9867Z" fill="white"/>
<path opacity="0.948" fill-rule="evenodd" clip-rule="evenodd" d="M132.569 17.9341C133.226 17.9341 133.883 17.9341 134.54 17.9341C134.518 22.4957 134.54 27.0571 134.606 31.6183C134.699 31.7342 134.808 31.8218 134.934 31.8815C134.934 32.1884 134.934 32.4955 134.934 32.8025C134.252 32.7603 133.595 32.8042 132.963 32.9341C132.701 32.9341 132.438 32.9341 132.175 32.9341C132.196 32.6674 132.174 32.4042 132.109 32.1446C131.747 32.4447 131.375 32.7079 130.993 32.9341C130.511 32.9341 130.029 32.9341 129.547 32.9341C128.767 32.609 128.22 32.0388 127.905 31.2236C127.178 29.1768 127.134 27.1154 127.774 25.0393C128.159 23.6879 129.035 22.8984 130.401 22.6709C131.121 22.7021 131.69 23.0091 132.109 23.592C132.197 22.1885 132.197 20.785 132.109 19.3815C131.942 19.0232 131.658 18.8478 131.255 18.8551C131.255 18.592 131.255 18.3288 131.255 18.0657C131.721 18.1068 132.159 18.063 132.569 17.9341ZM130.861 23.9867C131.607 24.0983 132.024 24.5369 132.109 25.3025C132.232 27.1958 132.188 29.0817 131.978 30.9604C131.285 32.0409 130.672 31.9971 130.139 30.8288C129.876 28.8551 129.876 26.8815 130.139 24.9078C130.197 24.4315 130.438 24.1245 130.861 23.9867Z" fill="white"/>
<path opacity="0.96" fill-rule="evenodd" clip-rule="evenodd" d="M8.93408 18.0658C10.6427 18.0439 12.3507 18.0658 14.0582 18.1316C16.8532 18.6931 17.8386 20.3379 17.0144 23.0658C16.3648 24.0811 15.467 24.7609 14.3209 25.1053C17.5564 26.0087 18.498 28.0043 17.1458 31.0921C16.2327 32.1523 15.0721 32.7006 13.664 32.7369C12.088 32.8027 10.5113 32.8246 8.93408 32.8027C8.93408 32.4957 8.93408 32.1886 8.93408 31.8816C9.14603 31.8232 9.29932 31.6916 9.39394 31.4869C9.48153 27.4079 9.48153 23.329 9.39394 19.25C9.28673 19.076 9.13345 18.9883 8.93408 18.9869C8.93408 18.6799 8.93408 18.3728 8.93408 18.0658ZM12.3501 18.8553C12.9876 18.7611 13.535 18.9366 13.9925 19.3816C14.6414 20.9886 14.5976 22.5676 13.8611 24.1185C13.4036 24.5635 12.8562 24.739 12.2188 24.6448C12.1772 22.7046 12.221 20.7748 12.3501 18.8553ZM12.2188 25.4343C13.5339 25.5449 14.3441 26.2466 14.6494 27.5395C14.7986 28.7465 14.711 29.9307 14.3866 31.0921C13.8238 31.8957 13.1231 32.0711 12.2844 31.6185C12.2188 29.5575 12.1969 27.4961 12.2188 25.4343Z" fill="white"/>
<path opacity="0.932" fill-rule="evenodd" clip-rule="evenodd" d="M35.9999 17.9341C36.0875 17.9341 36.175 17.9341 36.2626 17.9341C37.5471 18.446 37.766 19.2574 36.9196 20.3683C35.781 20.8509 35.0803 20.5 34.8174 19.3157C34.9146 18.5834 35.3088 18.1229 35.9999 17.9341Z" fill="white"/>
<path opacity="0.963" fill-rule="evenodd" clip-rule="evenodd" d="M85.4012 32.9344C84.8319 32.9344 84.2625 32.9344 83.6932 32.9344C82.9207 32.5298 82.5484 31.8719 82.5764 30.9607C82.5107 28.6366 82.4888 26.312 82.5107 23.987C82.2042 23.987 81.8975 23.987 81.591 23.987C81.5695 23.6334 81.5914 23.2825 81.6567 22.9344C83.1761 21.9099 83.9424 20.4625 83.956 18.5923C84.2625 18.5923 84.5692 18.5923 84.8757 18.5923C84.8757 20.0397 84.8757 21.487 84.8757 22.9344C85.4889 22.9344 86.1019 22.9344 86.7151 22.9344C86.7503 23.279 86.7066 23.608 86.5837 23.9212C86.016 23.9869 85.4467 24.0088 84.8757 23.987C84.8537 26.3559 84.8757 28.7243 84.9414 31.0923C85.0554 31.6568 85.3182 31.7444 85.7297 31.3554C85.9891 30.7698 86.0985 30.1558 86.0582 29.5133C86.3209 29.5133 86.5837 29.5133 86.8465 29.5133C86.9378 30.4378 86.7845 31.315 86.3866 32.1449C86.1063 32.494 85.7778 32.7572 85.4012 32.9344Z" fill="white"/>
<path opacity="0.936" fill-rule="evenodd" clip-rule="evenodd" d="M31.6643 32.9341C31.1388 32.9341 30.6132 32.9341 30.0877 32.9341C29.7333 32.7459 29.361 32.5705 28.9709 32.4077C28.7901 32.5663 28.6369 32.7417 28.511 32.9341C28.2045 32.9341 27.8978 32.9341 27.5913 32.9341C27.5913 31.5305 27.5913 30.127 27.5913 28.7235C27.8978 28.7235 28.2045 28.7235 28.511 28.7235C28.6487 30.0434 29.2181 31.1179 30.219 31.9472C31.8662 32.3156 32.3698 31.7235 31.73 30.1709C30.7328 29.4413 29.7474 28.6957 28.7738 27.9341C27.3511 26.4928 27.2417 24.9577 28.4453 23.3288C28.9132 22.9206 29.4607 22.7013 30.0877 22.6709C30.6735 22.7934 31.2429 22.9688 31.7957 23.1972C32.0675 23.1597 32.2427 23.0062 32.3212 22.7367C32.5403 22.649 32.7591 22.649 32.9782 22.7367C33.1076 23.9757 33.1513 25.2257 33.1096 26.4867C32.803 26.4867 32.4964 26.4867 32.1898 26.4867C32.0353 25.4097 31.5537 24.5106 30.7446 23.7893C29.5008 23.3702 28.9971 23.7869 29.2336 25.0393C29.5184 25.3244 29.8029 25.6095 30.0877 25.8946C31.0583 26.4283 31.9562 27.0642 32.7811 27.8025C34.0329 29.538 33.8796 31.1389 32.3212 32.6051C32.0828 32.7047 31.8639 32.8143 31.6643 32.9341Z" fill="white"/>
<path opacity="0.973" fill-rule="evenodd" clip-rule="evenodd" d="M36.3942 22.8027C36.7446 22.8027 37.0949 22.8027 37.4453 22.8027C37.4233 25.6539 37.4453 28.5048 37.511 31.3554C37.6424 31.6623 37.8614 31.8817 38.1679 32.0133C38.233 32.2729 38.2549 32.536 38.2336 32.8027C36.9635 32.8027 35.6935 32.8027 34.4234 32.8027C34.4021 32.536 34.424 32.2729 34.4891 32.0133C34.6877 31.9137 34.863 31.7821 35.0146 31.6185C35.1023 29.1185 35.1023 26.6185 35.0146 24.1185C34.8688 23.9163 34.6717 23.8286 34.4234 23.8554C34.4234 23.5484 34.4234 23.2413 34.4234 22.9343C35.1059 22.9765 35.7629 22.9326 36.3942 22.8027Z" fill="white"/>
<path opacity="0.979" fill-rule="evenodd" clip-rule="evenodd" d="M41.2556 22.8027C41.5621 22.8027 41.8687 22.8027 42.1753 22.8027C42.1536 23.1999 42.1755 23.5946 42.241 23.9869C43.0004 23.0171 43.9858 22.6442 45.1972 22.8685C45.8985 23.1326 46.3145 23.637 46.4453 24.3817C46.4891 26.6624 46.533 28.9431 46.5767 31.2238C46.6155 31.6096 46.8126 31.8727 47.168 32.0133C47.2949 32.2627 47.3386 32.5259 47.2994 32.8027C46.2588 32.8442 45.2296 32.8004 44.2118 32.6712C44.168 30.0396 44.1241 27.408 44.0804 24.7764C43.615 24.2622 43.1332 24.2622 42.6351 24.7764C42.3834 25.2236 42.252 25.706 42.241 26.2238C42.1193 28.0294 42.163 29.8276 42.3723 31.6185C42.524 31.7821 42.6992 31.9137 42.8979 32.0133C42.9629 32.2729 42.9849 32.536 42.9636 32.8027C41.6935 32.8027 40.4235 32.8027 39.1534 32.8027C39.1321 32.536 39.154 32.2729 39.2191 32.0133C39.4177 31.9137 39.593 31.7821 39.7446 31.6185C39.8322 29.1185 39.8322 26.6185 39.7446 24.1185C39.5988 23.9163 39.4017 23.8286 39.1534 23.8554C39.1534 23.5484 39.1534 23.2413 39.1534 22.9343C39.8794 22.9766 40.5802 22.9327 41.2556 22.8027Z" fill="white"/>
<path opacity="0.954" fill-rule="evenodd" clip-rule="evenodd" d="M52.555 32.9341C51.9418 32.9341 51.3287 32.9341 50.7156 32.9341C49.1132 32.1871 48.2154 30.9152 48.0221 29.1183C47.7513 27.2724 48.1017 25.5618 49.0732 23.9867C50.7079 22.2362 52.3283 22.2362 53.9345 23.9867C54.6348 25.3009 54.9633 26.7044 54.9199 28.1972C53.4747 28.1972 52.0294 28.1972 50.5842 28.1972C50.5247 29.199 50.678 30.1639 51.044 31.092C51.6501 31.8399 52.3727 31.9495 53.2119 31.4209C53.7126 30.8346 53.9754 30.1547 54.0002 29.3815C54.3099 29.36 54.6164 29.3819 54.9199 29.4472C54.8178 31.1018 54.0295 32.2641 52.555 32.9341ZM51.2411 23.592C52.021 23.5685 52.3934 23.9632 52.3579 24.7762C52.4235 25.5645 52.4454 26.3539 52.4236 27.1446C51.8104 27.1446 51.1974 27.1446 50.5842 27.1446C50.5595 26.304 50.6252 25.4707 50.7812 24.6446C50.8296 24.2413 50.9829 23.8904 51.2411 23.592Z" fill="white"/>
<path opacity="0.951" fill-rule="evenodd" clip-rule="evenodd" d="M59.781 32.934C59.2555 32.934 58.7299 32.934 58.2044 32.934C57.9082 32.7539 57.5797 32.6223 57.219 32.5393C56.9321 32.5421 56.7351 32.6737 56.6277 32.934C56.3212 32.934 56.0145 32.934 55.708 32.934C55.708 31.5304 55.708 30.127 55.708 28.7235C56.0145 28.7235 56.3212 28.7235 56.6277 28.7235C56.7269 29.8648 57.165 30.8517 57.9416 31.684C58.613 32.2495 59.2917 32.2715 59.9781 31.7498C60.2409 31.2673 60.2409 30.7849 59.9781 30.3024C58.8631 29.3934 57.7244 28.5162 56.562 27.6708C55.6411 26.4796 55.5097 25.2076 56.1679 23.855C57.1828 22.5731 58.4091 22.3538 59.8467 23.1971C60.1208 23.142 60.3178 22.9885 60.4379 22.7366C60.6526 22.6717 60.8716 22.6498 61.0949 22.6708C61.0949 23.9428 61.0949 25.2147 61.0949 26.4866C60.8184 26.526 60.5557 26.4821 60.3065 26.355C60.1137 25.3325 59.632 24.4772 58.8613 23.7893C57.5255 23.3726 57.0656 23.8331 57.4817 25.1708C58.4958 26.0622 59.5688 26.8736 60.7007 27.605C62.168 29.3566 62.0805 31.0233 60.4379 32.605C60.1995 32.7046 59.9806 32.8143 59.781 32.934Z" fill="white"/>
<path opacity="0.947" fill-rule="evenodd" clip-rule="evenodd" d="M66.6132 32.9341C66.0877 32.9341 65.5621 32.9341 65.0366 32.9341C64.7404 32.7539 64.412 32.6223 64.0512 32.5393C63.7644 32.5422 63.5673 32.6738 63.4599 32.9341C63.1972 32.9341 62.9344 32.9341 62.6716 32.9341C62.6716 31.5305 62.6716 30.127 62.6716 28.7235C62.948 28.6842 63.2108 28.7281 63.4599 28.8551C63.6745 30.0975 64.2439 31.1282 65.168 31.9472C66.6817 32.3612 67.2292 31.8129 66.8103 30.3025C65.9714 29.5427 65.0736 28.8629 64.1169 28.263C62.6865 27.1997 62.2704 25.8181 62.8687 24.1183C63.8626 22.6104 65.1546 22.3034 66.7446 23.1972C67.0164 23.1597 67.1916 23.0062 67.2702 22.7367C67.4892 22.649 67.7081 22.649 67.9271 22.7367C68.0565 23.9757 68.1003 25.2257 68.0585 26.4867C67.7519 26.4867 67.4453 26.4867 67.1388 26.4867C66.9764 25.5253 66.5822 24.67 65.9563 23.9209C64.5502 23.2699 64.0028 23.6866 64.3139 25.1709C65.0659 25.8434 65.8761 26.4355 66.7446 26.9472C68.5647 28.1607 69.0246 29.7616 68.1242 31.7498C67.7092 32.2771 67.2055 32.6718 66.6132 32.9341Z" fill="white"/>
<path opacity="0.959" fill-rule="evenodd" clip-rule="evenodd" d="M93.679 32.9342C93.2411 32.9342 92.803 32.9342 92.3651 32.9342C91.9773 32.6335 91.627 32.2826 91.314 31.8816C90.8974 32.3456 90.4157 32.6964 89.8688 32.9342C89.387 32.9342 88.9053 32.9342 88.4235 32.9342C87.1256 32.126 86.7533 30.9857 87.3067 29.5131C88.096 27.9776 89.3222 26.9688 90.9856 26.4868C91.1058 25.6389 91.0619 24.8056 90.8542 23.9868C90.373 23.4923 89.8694 23.4704 89.3432 23.921C89.9548 24.3022 90.1519 24.8504 89.9345 25.5658C89.2923 26.3242 88.5696 26.4119 87.7666 25.8289C87.1893 24.7865 87.4083 23.9312 88.4235 23.2631C89.7622 22.5561 91.1198 22.5122 92.4965 23.1316C93.1196 23.6117 93.448 24.2477 93.4819 25.0394C93.5257 27.1447 93.5696 29.25 93.6133 31.3552C93.818 31.4664 93.9494 31.3788 94.0075 31.0921C94.0725 30.8325 94.0944 30.5694 94.0732 30.3026C94.2922 30.3026 94.5111 30.3026 94.7301 30.3026C94.9135 31.4229 94.5631 32.3 93.679 32.9342ZM90.7885 27.5394C90.9624 28.0141 91.0501 28.5404 91.0513 29.1184C91.0293 29.6447 91.0075 30.171 90.9856 30.6973C90.6216 31.6216 90.1398 31.7092 89.5403 30.9605C89.2773 29.5508 89.6934 28.4104 90.7885 27.5394Z" fill="white"/>
<path opacity="0.954" fill-rule="evenodd" clip-rule="evenodd" d="M97.2262 22.8027C97.5327 22.8027 97.8394 22.8027 98.1459 22.8027C97.9842 24.1435 98.2908 24.297 99.0656 23.2633C100.154 22.5931 101.184 22.6589 102.153 23.4606C102.364 23.8748 102.495 24.3134 102.547 24.7764C102.591 27.0133 102.635 29.2501 102.679 31.4869C102.766 31.7501 102.942 31.9255 103.204 32.0133C103.269 32.2729 103.291 32.536 103.27 32.8027C102.263 32.8027 101.255 32.8027 100.248 32.8027C100.27 30.2146 100.248 27.6269 100.182 25.0396C100.126 24.6105 99.8856 24.3912 99.4598 24.3817C98.7542 24.5166 98.382 24.9552 98.343 25.6975C98.2554 27.6273 98.2554 29.5571 98.343 31.4869C98.4427 31.7679 98.6398 31.9433 98.9342 32.0133C99.0612 32.2627 99.1049 32.5259 99.0656 32.8027C97.7628 32.8447 96.4707 32.8009 95.1897 32.6712C95.0849 32.4397 95.1068 32.2204 95.2554 32.0133C95.5498 31.9433 95.7469 31.7679 95.8467 31.4869C95.9343 29.0747 95.9343 26.6624 95.8467 24.2501C95.7247 23.9165 95.4838 23.7849 95.124 23.8554C95.124 23.5484 95.124 23.2413 95.124 22.9343C95.8501 22.9766 96.5509 22.9327 97.2262 22.8027Z" fill="white"/>
<path opacity="0.96" fill-rule="evenodd" clip-rule="evenodd" d="M119.168 32.9343C118.73 32.9343 118.292 32.9343 117.854 32.9343C117.466 32.6336 117.116 32.2827 116.803 31.8816C116.397 32.2897 115.959 32.6404 115.489 32.9343C114.963 32.9343 114.438 32.9343 113.912 32.9343C112.614 32.1261 112.242 30.9857 112.796 29.5132C113.596 27.9595 114.844 26.9507 116.54 26.4869C116.689 25.7392 116.667 24.9936 116.474 24.2501C116.04 23.5606 115.493 23.4509 114.832 23.9211C115.444 24.3022 115.641 24.8505 115.423 25.5658C114.635 26.443 113.847 26.443 113.058 25.5658C112.763 24.4679 113.135 23.6565 114.175 23.1316C115.343 22.599 116.525 22.5551 117.723 23.0001C118.233 23.2924 118.606 23.709 118.839 24.2501C118.883 26.443 118.927 28.636 118.971 30.829C118.999 31.0769 119.087 31.2962 119.233 31.4869C119.51 31.1439 119.619 30.7492 119.562 30.3027C119.781 30.3027 120 30.3027 120.219 30.3027C120.402 31.4243 120.051 32.3015 119.168 32.9343ZM116.277 27.5395C116.451 27.9919 116.539 28.4962 116.54 29.0527C116.586 29.8055 116.476 30.5292 116.212 31.2237C115.712 31.6236 115.317 31.5358 115.029 30.9606C114.766 29.5508 115.182 28.4105 116.277 27.5395Z" fill="white"/>
<path opacity="0.945" fill-rule="evenodd" clip-rule="evenodd" d="M122.584 22.8027C122.934 22.8027 123.285 22.8027 123.635 22.8027C123.613 23.3746 123.635 23.9448 123.701 24.5133C124.192 23.1165 125.133 22.6121 126.526 23.0001C127.426 23.8448 127.383 24.6343 126.394 25.3685C126 25.4562 125.606 25.4562 125.212 25.3685C124.95 25.2161 124.731 25.0187 124.555 24.7764C124.125 25.5009 123.884 26.2904 123.832 27.1448C123.744 28.5922 123.744 30.0396 123.832 31.4869C124.128 31.8063 124.5 31.9379 124.949 31.8817C124.982 32.1833 124.939 32.4684 124.817 32.7369C123.417 32.8027 122.015 32.8247 120.613 32.8027C120.592 32.536 120.614 32.2729 120.679 32.0133C120.994 31.953 121.213 31.7775 121.336 31.4869C121.423 29.0747 121.423 26.6624 121.336 24.2501C121.198 23.946 120.957 23.7706 120.613 23.7238C120.486 23.4743 120.442 23.2112 120.482 22.9343C121.208 22.9766 121.909 22.9327 122.584 22.8027Z" fill="white"/>
<path opacity="0.97" fill-rule="evenodd" clip-rule="evenodd" d="M24.7006 32.9341C24.3502 32.9341 24 32.9341 23.6495 32.9341C23.6712 32.537 23.6493 32.1422 23.5838 31.7499C23.1656 32.2812 22.662 32.6759 22.0729 32.9341C21.5474 32.9341 21.0218 32.9341 20.4963 32.9341C19.8759 32.6622 19.5037 32.1797 19.3795 31.4867C19.3357 29.1621 19.2919 26.8376 19.2481 24.513C19.2654 24.0482 19.0464 23.785 18.5911 23.7236C18.526 23.464 18.5042 23.2008 18.5255 22.9341C19.5766 22.9341 20.6276 22.9341 21.6787 22.9341C21.6569 25.6099 21.6787 28.2853 21.7444 30.9604C22.0019 31.4704 22.3742 31.58 22.8612 31.2893C23.3275 30.8994 23.5683 30.395 23.5838 29.7762C23.6715 27.9779 23.6715 26.1797 23.5838 24.3815C23.5691 23.9937 23.3721 23.8182 22.9926 23.8551C22.9926 23.5481 22.9926 23.2411 22.9926 22.9341C24 22.9341 25.0072 22.9341 26.0145 22.9341C25.9926 25.8291 26.0145 28.7239 26.0802 31.6183C26.2318 31.7818 26.4071 31.9134 26.6057 32.013C26.6708 32.2726 26.6927 32.5358 26.6714 32.8025C25.9889 32.7603 25.332 32.8042 24.7006 32.9341Z" fill="white"/>
</g>
<defs>
<clipPath id="clip0_13381_46734">
<rect width="126" height="15" fill="white" transform="translate(9 18)"/>
</clipPath>
</defs>
</svg>
