<svg width="168" height="50" viewBox="0 0 168 50" fill="none" xmlns="http://www.w3.org/2000/svg">
<g clip-path="url(#clip0_13381_46680)">
<path fill-rule="evenodd" clip-rule="evenodd" d="M20.9244 21.0791C23.3879 21.287 25.8535 21.287 28.3212 21.0791C28.45 22.0044 28.6181 22.9255 28.8255 23.8423C28.7695 23.9738 28.7134 24.1054 28.6574 24.237C28.1903 23.6129 27.686 23.0077 27.1444 22.4212C26.6677 22.0132 26.1074 21.829 25.4633 21.8686C25.4353 24.2376 25.4633 26.606 25.5474 28.9738C25.9834 29.1743 26.4036 29.3849 26.8082 29.6054C25.3512 29.8159 23.8943 29.8159 22.4374 29.6054C22.8419 29.3849 23.2622 29.1743 23.6982 28.9738C23.7822 26.606 23.8102 24.2376 23.7822 21.8686C23.2286 21.8305 22.7242 21.9621 22.2693 22.2633C21.5766 22.8636 20.9882 23.5215 20.5041 24.237C20.4201 24.1844 20.336 24.1317 20.252 24.0791C20.5192 23.0873 20.7433 22.0873 20.9244 21.0791Z" fill="white"/>
<path fill-rule="evenodd" clip-rule="evenodd" d="M52.1928 21.0791C54.6045 21.2843 57.014 21.2843 59.4215 21.0791C59.8312 22.0387 60.1112 23.0387 60.262 24.0791C60.178 24.1317 60.0939 24.1844 60.0099 24.237C59.5229 23.5111 58.9345 22.8532 58.2447 22.2633C57.8397 21.9938 57.3916 21.8622 56.8998 21.8686C56.8439 24.2919 56.9 26.713 57.068 29.1317C57.3889 29.2657 57.7251 29.3183 58.0766 29.2896C58.0766 29.4475 58.0766 29.6054 58.0766 29.7633C56.6758 29.7633 55.2747 29.7633 53.8739 29.7633C53.8739 29.6054 53.8739 29.4475 53.8739 29.2896C54.2254 29.3183 54.5616 29.2657 54.8825 29.1317C55.0505 26.713 55.1066 24.2919 55.0507 21.8686C54.6322 21.8366 54.2399 21.9156 53.8739 22.1054C53.095 22.6 52.5347 23.2579 52.1928 24.0791C52.0541 24.2189 51.886 24.2716 51.6885 24.237C51.8929 23.1898 52.061 22.1372 52.1928 21.0791Z" fill="white"/>
<path fill-rule="evenodd" clip-rule="evenodd" d="M90.1856 29.921C89.4572 29.921 88.7286 29.921 88.0002 29.921C87.7143 29.7262 87.378 29.6209 86.9916 29.6053C86.7344 29.6273 86.5662 29.7326 86.4872 29.921C86.3191 29.921 86.151 29.921 85.9829 29.921C85.9829 28.6579 85.9829 27.3947 85.9829 26.1316C86.151 26.1316 86.3191 26.1316 86.4872 26.1316C86.5234 27.3664 87.0277 28.3927 88.0002 29.2105C89.9168 29.854 90.8414 29.2488 90.774 27.3947C90.5218 27.1579 90.2697 26.921 90.0175 26.6842C88.9183 26.2703 87.8535 25.7966 86.8235 25.2631C85.5588 23.6665 85.839 22.3507 87.664 21.3158C88.7856 20.9765 89.8783 21.0555 90.9421 21.5526C91.1607 21.362 91.4128 21.2567 91.6986 21.2368C91.8486 22.2925 91.8486 23.3452 91.6986 24.3947C91.3073 23.8702 90.9991 23.2912 90.774 22.6579C89.8514 21.4309 88.7866 21.273 87.5799 22.1842C87.3374 22.9282 87.5334 23.5335 88.1683 24C89.2585 24.4331 90.3233 24.9068 91.3624 25.421C92.3082 26.4538 92.4484 27.5854 91.7827 28.8158C91.3575 29.3502 90.8251 29.7187 90.1856 29.921Z" fill="white"/>
<path fill-rule="evenodd" clip-rule="evenodd" d="M102.793 29.9209C102.009 29.9209 101.224 29.9209 100.44 29.9209C97.3204 28.8503 96.2277 26.7976 97.1617 23.763C98.4659 21.5064 100.455 20.6906 103.13 21.3157C105.749 22.3087 106.785 24.1245 106.24 26.763C105.659 28.3875 104.51 29.4401 102.793 29.9209ZM101.112 21.5525C103.103 21.6588 104.196 22.6588 104.39 24.5525C104.671 26.1557 104.307 27.6031 103.298 28.8946C100.868 29.9774 99.3836 29.2669 98.8428 26.763C98.4365 24.9473 98.8567 23.342 100.104 21.9472C100.477 21.8578 100.814 21.7263 101.112 21.5525Z" fill="white"/>
<path fill-rule="evenodd" clip-rule="evenodd" d="M155.916 29.2896C155.916 29.4475 155.916 29.6054 155.916 29.7633C154.739 29.7633 153.562 29.7633 152.385 29.7633C152.385 29.6054 152.385 29.4475 152.385 29.2896C152.797 29.3669 153.077 29.2354 153.226 28.8948C152.969 28.228 152.689 27.5701 152.385 26.9212C151.439 26.764 150.487 26.7113 149.528 26.7633C149.348 27.3075 149.179 27.8602 149.023 28.4212C149.221 29.0012 149.613 29.3959 150.2 29.6054C149.085 29.7627 147.964 29.8154 146.838 29.7633C146.838 29.6054 146.838 29.4475 146.838 29.2896C147.362 29.2671 147.782 29.0566 148.099 28.658C148.958 26.8868 149.77 25.0973 150.536 23.2896C150.446 23.0925 150.333 22.9083 150.2 22.7369C150.64 22.2535 150.92 21.7009 151.041 21.079C151.314 21.057 151.51 21.1622 151.629 21.3948C152.809 23.926 153.985 26.4523 155.159 28.9738C155.346 29.2164 155.598 29.3217 155.916 29.2896ZM150.704 23.7633C151.213 24.502 151.661 25.2915 152.049 26.1317C151.321 26.3422 150.592 26.3422 149.864 26.1317C150.246 25.3716 150.526 24.5821 150.704 23.7633Z" fill="white"/>
<path fill-rule="evenodd" clip-rule="evenodd" d="M29.4983 21.2368C30.7737 21.1872 32.0345 21.2398 33.2807 21.3947C33.3963 21.526 33.3683 21.6313 33.1966 21.7105C32.8213 21.768 32.5131 21.9259 32.272 22.1842C32.1881 23.1301 32.1601 24.0775 32.188 25.0263C33.4208 25.0263 34.6536 25.0263 35.8864 25.0263C35.9143 24.0249 35.8863 23.0249 35.8023 22.0263C35.5023 21.9094 35.1941 21.8042 34.8777 21.7105C34.7061 21.6313 34.6781 21.526 34.7937 21.3947C36.0411 21.2137 37.3019 21.1873 38.5761 21.3157C38.653 21.3811 38.7091 21.4601 38.7442 21.5526C38.4097 21.7694 38.0454 21.9273 37.6515 22.0263C37.5394 24.3421 37.5394 26.6578 37.6515 28.9736C38.0328 29.1727 38.3969 29.3832 38.7442 29.6052C37.3994 29.8157 36.0545 29.8157 34.7096 29.6052C35.0569 29.3832 35.4211 29.1727 35.8023 28.9736C35.8863 27.8169 35.9143 26.659 35.8864 25.5C34.6536 25.5 33.4208 25.5 32.188 25.5C32.16 26.6065 32.1881 27.7117 32.272 28.8157C32.335 28.9604 32.419 29.092 32.5242 29.2105C32.8805 29.2259 33.1607 29.3575 33.3648 29.6052C32.0808 29.7627 30.7919 29.8153 29.4983 29.7631C29.4983 29.6052 29.4983 29.4473 29.4983 29.2894C29.8719 29.3403 30.1801 29.235 30.4229 28.9736C30.5349 26.6578 30.5349 24.3421 30.4229 22.0263C30.1806 21.9063 29.9284 21.801 29.6664 21.7105C29.5175 21.5802 29.4614 21.4223 29.4983 21.2368Z" fill="white"/>
<path fill-rule="evenodd" clip-rule="evenodd" d="M39.4167 21.2368C41.7143 21.2368 44.0116 21.2368 46.3092 21.2368C46.4532 22.1465 46.6773 23.0413 46.9816 23.921C46.9298 24.0486 46.8458 24.1539 46.7294 24.2368C46.2626 23.2195 45.5061 22.4563 44.46 21.9473C43.7349 21.8312 43.0063 21.7523 42.2746 21.7105C42.2746 22.8684 42.2746 24.0263 42.2746 25.1842C43.6794 25.2331 44.3519 24.6015 44.2919 23.2894C44.46 23.2894 44.6281 23.2894 44.7962 23.2894C44.7962 24.7105 44.7962 26.1316 44.7962 27.5526C44.6281 27.5526 44.46 27.5526 44.2919 27.5526C44.351 26.2398 43.6786 25.6082 42.2746 25.6579C42.1718 26.886 42.284 28.0702 42.6108 29.2105C44.8515 29.5004 46.3083 28.632 46.9816 26.6052C47.1203 26.4654 47.2884 26.4128 47.4859 26.4473C47.2961 27.5495 47.128 28.6548 46.9816 29.7631C44.46 29.7631 41.9383 29.7631 39.4167 29.7631C39.4167 29.6052 39.4167 29.4473 39.4167 29.2894C39.7129 29.312 39.9932 29.2594 40.2573 29.1316C40.4533 26.7649 40.4813 24.3965 40.3413 22.0263C40.0991 21.9063 39.8469 21.8011 39.5848 21.7105C39.4359 21.5802 39.3799 21.4223 39.4167 21.2368Z" fill="white"/>
<path fill-rule="evenodd" clip-rule="evenodd" d="M60.9343 21.2368C62.2232 21.2368 63.5119 21.2368 64.8008 21.2368C64.7115 21.7546 64.3753 21.9652 63.7921 21.8684C63.7641 24.29 63.7921 26.7111 63.8762 29.1316C64.1618 29.2746 64.4701 29.3272 64.8008 29.2894C64.8008 29.4473 64.8008 29.6052 64.8008 29.7631C63.5119 29.7631 62.2232 29.7631 60.9343 29.7631C60.9343 29.6052 60.9343 29.4473 60.9343 29.2894C61.2305 29.312 61.5107 29.2594 61.7748 29.1316C61.9709 26.7649 61.9989 24.3965 61.8589 22.0263C61.6166 21.9063 61.3645 21.8011 61.1024 21.7105C60.9535 21.5802 60.8975 21.4223 60.9343 21.2368Z" fill="white"/>
<path fill-rule="evenodd" clip-rule="evenodd" d="M65.4733 21.2368C66.4693 21.1881 67.4501 21.2407 68.4152 21.3947C69.2082 23.3584 70.0487 25.3057 70.9368 27.2368C71.909 25.3146 72.8336 23.3672 73.7106 21.3947C74.5456 21.2112 75.3862 21.1848 76.2322 21.3157C76.3091 21.3811 76.3652 21.46 76.4004 21.5526C76.0073 21.7288 75.6432 21.9393 75.3076 22.1841C75.1955 24.4473 75.1955 26.7105 75.3076 28.9736C75.6889 29.1726 76.053 29.3831 76.4004 29.6052C75.756 29.6578 75.1115 29.7105 74.4671 29.7631C73.7368 29.7848 73.0363 29.7059 72.3657 29.5262C72.7504 29.3768 73.1147 29.1926 73.4585 28.9736C73.5706 26.9736 73.5706 24.9736 73.4585 22.9736C72.5648 25.3119 71.5281 27.5751 70.3484 29.7631C69.2843 27.6566 68.3037 25.4987 67.4065 23.2894C67.2944 25.0262 67.2944 26.7631 67.4065 28.4999C67.5045 28.737 67.6446 28.9475 67.8268 29.1315C68.174 29.203 68.4542 29.3609 68.6674 29.6052C67.5521 29.7626 66.4315 29.8152 65.3052 29.7631C65.3052 29.6052 65.3052 29.4473 65.3052 29.2894C65.9221 29.3168 66.3424 29.0536 66.566 28.4999C66.817 26.4527 66.8731 24.4001 66.7341 22.342C66.6712 22.1974 66.5872 22.0658 66.4819 21.9473C65.9065 21.9702 65.5703 21.7333 65.4733 21.2368Z" fill="white"/>
<path fill-rule="evenodd" clip-rule="evenodd" d="M77.073 21.2369C79.315 21.2106 81.5566 21.2369 83.7973 21.3159C84.1199 22.1995 84.4002 23.0942 84.6379 24.0001C84.5538 24.079 84.4698 24.158 84.3857 24.2369C83.5132 22.444 82.0283 21.6019 79.9308 21.7106C79.9308 22.8685 79.9308 24.0264 79.9308 25.1843C81.3357 25.2332 82.0081 24.6016 81.9481 23.2895C82.1162 23.2895 82.2843 23.2895 82.4524 23.2895C82.4524 24.7106 82.4524 26.1316 82.4524 27.5527C82.2843 27.5527 82.1162 27.5527 81.9481 27.5527C81.9991 26.2321 81.3266 25.6006 79.9308 25.658C79.8281 26.8861 79.9402 28.0703 80.267 29.2106C82.5098 29.4997 83.9668 28.6313 84.6379 26.6053C84.7765 26.4655 84.9447 26.4129 85.1422 26.4474C84.9827 27.5121 84.7586 28.5648 84.4698 29.6053C82.0066 29.7631 79.5411 29.8157 77.073 29.7632C77.073 29.6053 77.073 29.4474 77.073 29.2895C77.4465 29.3404 77.7548 29.2351 77.9976 28.9738C78.1097 26.658 78.1097 24.3422 77.9976 22.0264C77.7553 21.9064 77.5032 21.8012 77.2411 21.7106C77.0921 21.5803 77.0361 21.4224 77.073 21.2369Z" fill="white"/>
<path fill-rule="evenodd" clip-rule="evenodd" d="M107.165 21.2369C109.409 21.1844 111.65 21.2371 113.889 21.3948C114.278 22.3254 114.446 23.2728 114.393 24.2369C113.582 22.4241 112.125 21.582 110.022 21.7106C110.022 22.8685 110.022 24.0264 110.022 25.1843C111.425 25.2357 112.097 24.6041 112.04 23.2896C112.208 23.2896 112.376 23.2896 112.544 23.2896C112.544 24.7106 112.544 26.1317 112.544 27.5527C112.376 27.5527 112.208 27.5527 112.04 27.5527C112.096 26.237 111.423 25.6054 110.022 25.658C109.967 26.8207 110.023 27.9785 110.191 29.1317C110.455 29.2595 110.735 29.3121 111.031 29.2896C111.031 29.4475 111.031 29.6054 111.031 29.7633C109.742 29.7633 108.453 29.7633 107.165 29.7633C107.165 29.6054 107.165 29.4475 107.165 29.2896C107.495 29.3274 107.804 29.2748 108.089 29.1317C108.173 26.7112 108.201 24.2902 108.173 21.8685C107.59 21.9653 107.254 21.7548 107.165 21.2369Z" fill="white"/>
<path fill-rule="evenodd" clip-rule="evenodd" d="M119.1 21.2369C120.334 21.2106 121.567 21.2369 122.799 21.3158C122.875 21.3812 122.932 21.4601 122.967 21.5527C122.632 21.7695 122.268 21.9274 121.874 22.0264C121.762 24.3422 121.762 26.6579 121.874 28.9737C122.255 29.1727 122.619 29.3833 122.967 29.6053C121.622 29.8158 120.277 29.8158 118.932 29.6053C119.279 29.3833 119.644 29.1727 120.025 28.9737C120.137 26.6579 120.137 24.3422 120.025 22.0264C119.725 21.9095 119.417 21.8042 119.1 21.7106C118.922 21.5646 118.922 21.4067 119.1 21.2369Z" fill="white"/>
<path fill-rule="evenodd" clip-rule="evenodd" d="M131.204 29.9211C131.036 29.9211 130.868 29.9211 130.7 29.9211C128.971 27.6911 127.206 25.4806 125.404 23.2895C125.292 25.0263 125.292 26.7632 125.404 28.5C125.628 29.0537 126.048 29.3169 126.665 29.2895C126.665 29.4474 126.665 29.6053 126.665 29.7632C125.544 29.7632 124.424 29.7632 123.303 29.7632C123.303 29.6053 123.303 29.4474 123.303 29.2895C123.906 29.2825 124.327 29.0194 124.564 28.5C124.676 26.4474 124.676 24.3947 124.564 22.3421C124.287 22.0008 123.923 21.7903 123.471 21.7105C123.322 21.5803 123.266 21.4224 123.303 21.2369C124.145 21.2107 124.986 21.237 125.825 21.3158C127.486 23.2446 129.083 25.2183 130.616 27.2369C130.728 25.7632 130.728 24.2895 130.616 22.8158C130.417 22.1294 129.941 21.761 129.187 21.7105C129.187 21.5526 129.187 21.3947 129.187 21.2369C130.364 21.2369 131.54 21.2369 132.717 21.2369C132.754 21.4224 132.698 21.5803 132.549 21.7105C131.814 21.8487 131.393 22.2698 131.288 22.9737C131.204 25.2889 131.176 27.6047 131.204 29.9211Z" fill="white"/>
<path fill-rule="evenodd" clip-rule="evenodd" d="M133.053 21.2366C134.912 21.1768 136.761 21.2557 138.601 21.4735C141.186 22.4079 142.223 24.171 141.711 26.763C141.358 28.2947 140.377 29.2684 138.769 29.684C136.805 29.8155 134.844 29.7892 132.885 29.6051C133.233 29.383 133.597 29.1725 133.978 28.9735C134.09 26.6577 134.09 24.3419 133.978 22.0261C133.678 21.9093 133.37 21.804 133.053 21.7103C132.875 21.5643 132.875 21.4064 133.053 21.2366ZM135.743 21.7103C138.635 21.5841 140.036 22.8999 139.946 25.6577C139.939 26.6646 139.687 27.6119 139.189 28.4998C138.234 29.3246 137.169 29.4825 135.995 28.9735C135.939 28.8156 135.883 28.6577 135.827 28.4998C135.743 26.2373 135.715 23.9741 135.743 21.7103Z" fill="white"/>
<path fill-rule="evenodd" clip-rule="evenodd" d="M142.803 21.2368C144.092 21.2368 145.381 21.2368 146.67 21.2368C146.707 21.4223 146.651 21.5802 146.502 21.7105C146.185 21.8042 145.877 21.9094 145.577 22.0263C145.465 24.3421 145.465 26.6579 145.577 28.9737C145.958 29.1727 146.323 29.3832 146.67 29.6052C145.325 29.8158 143.98 29.8158 142.635 29.6052C142.983 29.3832 143.347 29.1727 143.728 28.9737C143.84 26.6579 143.84 24.3421 143.728 22.0263C143.358 21.8839 142.994 21.726 142.635 21.5526C142.696 21.4447 142.752 21.3394 142.803 21.2368Z" fill="white"/>
</g>
<g clip-path="url(#clip1_13381_46680)">
<path d="M5.71422 20H14.2858C15.2324 20 16 20.7673 16 21.7142V30.2858C16 31.2324 15.2324 32 14.2858 32H5.71422C4.76758 32 4 31.2324 4 30.2858V21.7142C4 20.7673 4.76758 20 5.71422 20Z" fill="white"/>
<path d="M6.09111 24.2159H8.30924C8.38799 24.2159 8.44963 24.2007 8.49416 24.1705L8.56119 24.125L8.58604 24.1341L8.60057 24.1641L8.87408 25.3897V25.4052L8.85955 25.4441L8.8265 25.4595C8.79486 25.4595 8.75971 25.4068 8.72033 25.3011C8.68072 25.1954 8.6376 25.1045 8.59002 25.0287C8.46744 24.8384 8.32002 24.6847 8.14869 24.5675C7.97432 24.4498 7.77744 24.3697 7.57049 24.3327V27.1712C7.57049 27.3148 7.58127 27.4159 7.60213 27.4738C7.62322 27.5314 7.66002 27.5759 7.71275 27.6076C7.75822 27.6355 7.83041 27.6542 7.92955 27.6645C8.02869 27.6748 8.07791 27.7002 8.07791 27.74L8.05682 27.7866L7.9858 27.7995H6.3883L6.31213 27.7866L6.29104 27.74C6.29104 27.7002 6.33674 27.6755 6.42791 27.6657C6.51908 27.6559 6.58635 27.6418 6.63018 27.6228C6.68924 27.5977 6.73635 27.5499 6.76049 27.4906C6.7858 27.4302 6.79869 27.3233 6.79869 27.1712V24.3327C6.58307 24.3723 6.39088 24.4503 6.22072 24.5661C6.04424 24.6891 5.89377 24.8464 5.77916 25.0285C5.73041 25.1066 5.68611 25.1977 5.64744 25.3025C5.609 25.4068 5.57385 25.4595 5.54244 25.4595L5.51361 25.4443L5.50049 25.4052V25.3897L5.80752 24.1616L5.82346 24.1367L5.84971 24.1252L5.91393 24.1707C5.95354 24.2009 6.01236 24.2162 6.09111 24.2159ZM10.7763 24.2574C10.4364 24.2574 10.1763 24.407 9.99557 24.7065C9.8151 25.006 9.72486 25.4396 9.72486 26.0077C9.72486 26.5754 9.8151 27.0092 9.99557 27.3087C10.1763 27.6083 10.4362 27.758 10.7763 27.758C11.1163 27.758 11.3728 27.6085 11.5516 27.3087C11.7302 27.0092 11.8195 26.5756 11.8195 26.0077C11.8195 25.4398 11.7295 25.006 11.5497 24.7065C11.3702 24.407 11.1121 24.2574 10.7758 24.2574H10.7763ZM10.7763 24.1456C11.3226 24.1456 11.7745 24.3209 12.131 24.6716C12.4877 25.0222 12.6656 25.4673 12.6656 26.008C12.6656 26.5482 12.4874 26.9923 12.131 27.3455C11.7742 27.6988 11.3226 27.8752 10.7763 27.8752C10.5503 27.8752 10.3392 27.8434 10.1428 27.7805C9.94729 27.7177 9.76424 27.6212 9.60135 27.4958C9.37002 27.3209 9.19189 27.1048 9.06791 26.848C8.94229 26.5857 8.87854 26.2984 8.88135 26.008C8.88135 25.4677 9.05971 25.0222 9.41619 24.6716C9.77291 24.3209 10.2264 24.1456 10.7763 24.1456ZM12.9937 24.2159H14.3917C14.4321 24.2159 14.4597 24.2209 14.4756 24.2314L14.4993 24.283C14.4993 24.316 14.4656 24.3383 14.3983 24.3509C14.346 24.3584 14.2949 24.3734 14.2471 24.395C14.186 24.428 14.1428 24.473 14.1185 24.53C14.0941 24.587 14.0817 24.6945 14.0817 24.8518V27.1658C14.0817 27.3235 14.0938 27.4313 14.1185 27.489C14.1428 27.5469 14.1867 27.5923 14.2502 27.6254C14.2781 27.639 14.3268 27.6528 14.396 27.6657C14.4651 27.6786 14.4998 27.7018 14.4998 27.7348L14.4801 27.7866C14.4667 27.7951 14.4377 27.7995 14.3922 27.7995H12.9942C12.9471 27.7995 12.9161 27.7948 12.9021 27.7855L12.8812 27.7348C12.8812 27.7018 12.9149 27.6793 12.9822 27.6657C13.0495 27.6526 13.0992 27.6383 13.1303 27.6228C13.1892 27.5945 13.2358 27.5462 13.2621 27.4866C13.2883 27.4271 13.3017 27.32 13.3017 27.166V24.7194C13.3017 24.6345 13.2841 24.5635 13.2489 24.5063C13.2138 24.4494 13.1631 24.407 13.0963 24.3791C13.072 24.3706 13.0375 24.3627 12.9937 24.3556C12.9182 24.3418 12.8805 24.3174 12.8805 24.2825L12.9053 24.2309C12.922 24.2204 12.951 24.2155 12.9932 24.2155L12.9937 24.2159Z" fill="black"/>
</g>
<defs>
<clipPath id="clip0_13381_46680">
<rect width="136" height="9" fill="white" transform="translate(20 21)"/>
</clipPath>
<clipPath id="clip1_13381_46680">
<rect width="12" height="12" fill="white" transform="translate(4 20)"/>
</clipPath>
</defs>
</svg>
