<svg width="145" height="50" viewBox="0 0 145 50" fill="none" xmlns="http://www.w3.org/2000/svg">
<path fill-rule="evenodd" clip-rule="evenodd" d="M48.6465 14.8209C56.9027 16.2382 63.9204 17.443 70.938 13.5761V34.4841C63.9239 38.34 56.9099 37.1339 48.6591 35.7151C39.9363 34.2152 29.8313 32.4775 16.8828 36.2325V15.3429C29.8251 11.5898 39.9266 13.3239 48.6465 14.8209ZM21.1895 28.8337H23.306V24.1036C23.306 23.6435 23.4349 23.257 23.7109 22.9625C23.9686 22.6496 24.3367 22.5024 24.7784 22.5024C25.2201 22.5024 25.5698 22.6496 25.8091 22.9257C26.0483 23.2018 26.1588 23.5699 26.1588 24.03V28.8337H28.2569V24.1036C28.2569 23.6435 28.4042 23.2754 28.6618 22.9625C28.9195 22.6496 29.2692 22.5024 29.7109 22.5024C30.1895 22.5024 30.5391 22.6496 30.76 22.9257C30.9993 23.2018 31.1097 23.5699 31.1097 24.03V28.8337H33.171V23.5883C33.171 22.576 32.895 21.803 32.3428 21.2877C31.7907 20.7723 31.1097 20.5146 30.3183 20.5146C29.2324 20.5146 28.4042 20.9564 27.8336 21.8582C27.4287 20.9564 26.6557 20.5146 25.5146 20.5146C25.0545 20.5146 24.6128 20.6251 24.171 20.8459C23.7293 21.0668 23.4164 21.3613 23.214 21.7294V20.7355H21.1895V28.8337ZM35.8762 21.7113C36.6492 20.9015 37.643 20.4966 38.8209 20.4966C39.9989 20.4966 40.9743 20.9015 41.7657 21.7113C42.5387 22.5211 42.9436 23.5518 42.9436 24.7849C42.9436 26.0181 42.5571 27.0487 41.7657 27.8585C40.9743 28.6684 39.9989 29.0733 38.8209 29.0733C37.643 29.0733 36.6676 28.6684 35.8762 27.8585C35.1031 27.0487 34.6982 26.0181 34.6982 24.7849C34.7166 23.5518 35.1031 22.5211 35.8762 21.7113ZM37.4222 26.4782C37.8087 26.8831 38.2872 27.0855 38.8393 27.0855C39.3915 27.0855 39.87 26.8831 40.2565 26.4782C40.643 26.0733 40.8455 25.5027 40.8455 24.7849C40.8455 24.0671 40.643 23.4966 40.2565 23.0917C39.87 22.6868 39.3915 22.4843 38.8393 22.4843C38.2872 22.4843 37.8087 22.6868 37.4222 23.0917C37.0357 23.4966 36.8332 24.0671 36.8332 24.7849C36.8332 25.5211 37.0173 26.0733 37.4222 26.4782ZM46.7357 28.8337V24.1772C46.7357 23.6987 46.8645 23.2938 47.1406 22.9809C47.3983 22.668 47.7664 22.5024 48.2081 22.5024C48.6866 22.5024 49.0547 22.6496 49.294 22.9441C49.5148 23.2386 49.6437 23.6251 49.6437 24.1036V28.8337H51.7787V23.7355C51.7787 22.7785 51.5394 22.0054 51.0609 21.4165C50.5823 20.8091 49.8645 20.5146 48.9443 20.5146C48.4842 20.5146 48.0425 20.6251 47.6375 20.8275C47.2142 21.03 46.9014 21.3429 46.6805 21.7294V20.7355H44.6191V28.8337H46.7357ZM59.177 25.9811L60.9439 26.5148C60.723 27.2694 60.3181 27.8768 59.6923 28.3553C59.0666 28.8339 58.2935 29.0731 57.3733 29.0731C56.2506 29.0731 55.2935 28.6866 54.5021 27.8952C53.7107 27.1038 53.3242 26.0547 53.3242 24.748C53.3242 23.4964 53.7107 22.4658 54.4653 21.6743C55.2383 20.8829 56.1402 20.478 57.1708 20.478C58.3856 20.478 59.3242 20.8461 60.0236 21.6007C60.7046 22.3553 61.0543 23.3676 61.0543 24.6743V24.9688V25.2265L61.0359 25.3369H55.4224C55.4408 25.8707 55.6432 26.3124 56.0297 26.6621C56.4162 27.0118 56.8764 27.1958 57.4101 27.1958C58.2935 27.2142 58.9009 26.7909 59.177 25.9811ZM55.4592 23.8645H58.9745C58.9561 23.4228 58.7905 23.0363 58.5144 22.7234C58.2199 22.4105 57.7966 22.2633 57.2261 22.2633C56.7107 22.2633 56.3058 22.4289 55.9745 22.7602C55.6616 23.0915 55.496 23.4596 55.4592 23.8645ZM63.0788 32.0365H65.3426L70.2568 20.7358H67.993L66.0604 25.4843L63.9807 20.7358H61.6064L64.9377 27.8217L63.0788 32.0365Z" fill="white"/>
<path fill-rule="evenodd" clip-rule="evenodd" d="M70.9375 13.5762H127.312V34.4105H70.9375V13.5762ZM74.3238 23.1467C74.7103 22.7418 75.1705 22.5393 75.741 22.5393C76.6429 22.5393 77.2318 22.9995 77.4895 23.9197L79.3852 23.2571C79.2011 22.5025 78.7962 21.8584 78.1521 21.3246C77.5263 20.8093 76.6981 20.5332 75.7042 20.5332C74.5631 20.5332 73.5876 20.9381 72.8146 21.7479C72.0232 22.5577 71.6367 23.5884 71.6367 24.8215C71.6367 26.0547 72.0232 27.0853 72.8146 27.8952C73.606 28.7234 74.5815 29.1283 75.7594 29.1283C76.7349 29.1283 77.5447 28.8522 78.1889 28.3185C78.833 27.7663 79.2563 27.1406 79.4404 26.386L77.5815 25.7418C77.4711 26.1099 77.2686 26.4228 76.9741 26.6988C76.6797 26.9749 76.2748 27.1038 75.7778 27.1038C75.2073 27.1038 74.7287 26.8829 74.3422 26.478C73.9557 26.0547 73.7533 25.5025 73.7533 24.8031C73.7533 24.1038 73.9373 23.5516 74.3238 23.1467ZM81.4836 21.7294C82.2566 20.9196 83.2505 20.5146 84.4284 20.5146C85.6063 20.5146 86.5817 20.9196 87.3731 21.7294C88.1646 22.5392 88.5511 23.5699 88.5511 24.803C88.5511 26.0361 88.1646 27.0668 87.3731 27.8766C86.6001 28.6864 85.6063 29.0913 84.4284 29.0913C83.2505 29.0913 82.275 28.6864 81.4836 27.8766C80.7106 27.0668 80.3057 26.0361 80.3057 24.803C80.3241 23.5699 80.7106 22.5392 81.4836 21.7294ZM83.0112 26.5146C83.3977 26.9196 83.8762 27.122 84.4284 27.122C84.9805 27.122 85.459 26.9196 85.8455 26.5146C86.232 26.1097 86.4345 25.5392 86.4345 24.8214C86.4345 24.1036 86.232 23.5331 85.8455 23.1281C85.459 22.7232 84.9805 22.5208 84.4284 22.5208C83.8762 22.5208 83.3977 22.7232 83.0112 23.1281C82.6247 23.5331 82.4222 24.1036 82.4222 24.8214C82.4406 25.5392 82.6247 26.1097 83.0112 26.5146ZM92.3421 28.8522V24.1958C92.3421 23.7173 92.471 23.3123 92.7655 22.9995C93.0231 22.6866 93.3912 22.5209 93.8329 22.5209C94.3115 22.5209 94.6796 22.6682 94.9188 22.9627C95.1397 23.2571 95.2685 23.6436 95.2685 24.1222V28.8522H97.3851V23.7541C97.3851 22.797 97.1458 22.0424 96.6673 21.435C96.1888 20.8277 95.471 20.5332 94.5507 20.5332C94.0906 20.5332 93.6489 20.6436 93.244 20.8461C92.8207 21.0485 92.5078 21.3614 92.2869 21.7479V20.7541H90.2256V28.8522H92.3421ZM102.134 18.343V20.754H103.717V22.6865H102.134V26.073C102.134 26.4043 102.208 26.662 102.355 26.7908C102.502 26.9381 102.742 27.0117 103.055 27.0117C103.349 27.0117 103.552 26.9933 103.699 26.9381V28.7417C103.386 28.8706 102.999 28.9442 102.502 28.9442C101.729 28.9442 101.14 28.7233 100.68 28.2816C100.239 27.8399 100.018 27.2325 100.018 26.4411V22.6681H98.6006V20.7356H99.0055C99.392 20.7356 99.7049 20.6252 99.9073 20.3859C100.11 20.1466 100.22 19.8338 100.22 19.4473V18.3062L102.134 18.343ZM110.195 22.9445V20.7359C109.975 20.7175 109.809 20.6991 109.698 20.6807C108.594 20.6807 107.858 21.104 107.472 21.9506V20.7543H105.41V28.8524H107.527V25.1531C107.527 24.3432 107.711 23.7543 108.079 23.4046C108.465 23.0549 108.944 22.8708 109.551 22.8708C109.756 22.8708 109.945 22.9026 110.148 22.9366L110.195 22.9445ZM112.183 21.7294C112.956 20.9196 113.95 20.5146 115.128 20.5146C116.305 20.5146 117.281 20.9196 118.072 21.7294C118.845 22.5392 119.25 23.5699 119.25 24.803C119.25 26.0361 118.864 27.0668 118.072 27.8766C117.299 28.6864 116.305 29.0913 115.128 29.0913C113.95 29.0913 112.974 28.6864 112.183 27.8766C111.41 27.0668 111.005 26.0361 111.005 24.803C111.023 23.5699 111.41 22.5392 112.183 21.7294ZM113.729 26.5146C114.115 26.9196 114.594 27.122 115.146 27.122C115.698 27.122 116.158 26.9196 116.563 26.5146C116.95 26.1097 117.152 25.5392 117.152 24.8214C117.152 24.1036 116.95 23.5331 116.563 23.1281C116.177 22.7232 115.698 22.5208 115.146 22.5208C114.594 22.5208 114.115 22.7232 113.729 23.1281C113.342 23.5331 113.14 24.1036 113.14 24.8214C113.14 25.5392 113.324 26.1097 113.729 26.5146ZM120.926 16.9443H123.042V28.8523H120.926V16.9443Z" fill="white"/>
</svg>
