<svg width="137" height="50" viewBox="0 0 137 50" fill="none" xmlns="http://www.w3.org/2000/svg">
<path fill-rule="evenodd" clip-rule="evenodd" d="M51.4097 23.009C51.0852 21.423 49.7954 21.0031 48.3518 20.8681C43.6887 20.4326 42.861 23.945 42.861 25.4293C42.861 27.9665 43.5965 30.0661 48.1751 30.0661C49.0193 30.0661 51.3506 29.19 51.3506 27.7671H57.9355C57.6701 31.988 50.6281 33 47.5572 33C41.1936 33 35.7458 31.8062 36.0092 25.4867C36.1969 20.9759 40.4255 17.8114 48.836 18.0087C53.5247 18.119 58.0277 19.5923 58.0472 23.0095L51.4097 23.009ZM117.363 23.009C117.04 21.423 115.748 21.0031 114.305 20.8681C109.641 20.4326 108.815 23.945 108.815 25.4293C108.815 27.9665 109.55 30.0661 114.129 30.0661C114.973 30.0661 117.303 29.19 117.303 27.7671H123.889C123.625 31.988 116.581 33 113.509 33C107.146 33 101.698 31.8062 101.962 25.4867C102.15 20.9759 106.379 17.8114 114.788 18.0087C119.477 18.119 123.98 19.5923 124 23.0095L117.363 23.009ZM59.2224 18.3103H67.7706L75.064 28.617H75.1226V18.3103H80.6014V32.6214H72.4122L64.7608 22.3147H64.7007V32.6214H59.2224V18.3103ZM82.2924 18.3103H92.6752C97.6658 18.3103 100.601 19.7156 100.601 21.8379C100.601 23.0916 99.3723 24.6393 96.6329 25.095V25.1353C99.9306 25.3332 101.149 27.4353 101.149 28.6951C101.149 31.2176 98.2867 32.6219 92.7057 32.6219H82.2924V18.3103ZM88.303 23.87H90.0244C92.6757 23.87 94.0822 23.6626 94.0822 22.5523C94.0822 21.3636 92.9125 20.9663 90.5261 20.9663H88.3035L88.303 23.87ZM88.303 29.622H90.0244C93.2195 29.622 94.3922 29.2847 94.3922 28.1754C94.3922 26.9857 92.9125 26.5884 90.5261 26.5884H88.3035L88.303 29.622Z" fill="white"/>
<path fill-rule="evenodd" clip-rule="evenodd" d="M26.9768 26.7944L19.666 31.666L22.1281 25.8345L23.2963 23.1187C23.7696 22.241 24.6602 21.6815 25.6324 21.666C26.5638 21.666 27.3896 22.1127 27.9131 22.9135C28.4521 23.7142 28.4822 25.0234 27.9431 25.8345C27.7019 26.2142 27.3442 26.553 26.9768 26.7944Z" fill="white"/>
<path fill-rule="evenodd" clip-rule="evenodd" d="M23.4499 22.1283L19.8141 30.6673L19.6519 29.7357L18.5583 22.7356C18.5124 22.3084 18.6896 21.9481 19.0337 21.7114L19.5555 21.4027C19.586 21.2945 19.4341 21.2585 19.3631 21.2225L18.3403 21.2122C18.2746 20.2033 18.7202 19.2873 19.5808 18.7366C20.2494 18.304 21.2672 18.1909 22.0117 18.5409C22.979 18.9321 23.652 19.9565 23.6673 21.0012C23.6624 21.3871 23.5966 21.7836 23.4499 22.1283Z" fill="white"/>
<path fill-rule="evenodd" clip-rule="evenodd" d="M16.3591 30.6673L12.5525 22.1224C12.1431 21.2077 12.3155 20.0054 13.0154 19.2653C13.7638 18.4896 14.8189 18.1606 15.9067 18.4229C16.8273 18.6334 17.6887 19.4556 17.9151 20.3342C18.0227 20.6631 18.0064 21.0586 17.985 21.4182L16.3591 30.6673Z" fill="white"/>
<path fill-rule="evenodd" clip-rule="evenodd" d="M8.64533 26.4803C7.90895 25.8501 7.57907 25.0095 7.68556 24.0358C7.7922 23.052 8.57926 22.0887 9.51852 21.7916C10.4833 21.4944 11.5341 21.73 12.2351 22.4423C12.5295 22.7191 12.7123 23.0469 12.8645 23.3853L16.3327 31.666L8.64533 26.4803Z" fill="white"/>
<path fill-rule="evenodd" clip-rule="evenodd" d="M7.75935 32.6645C6.80061 32.5521 6.06151 32.0195 5.61093 31.1132C5.15447 30.1983 5.27311 28.9002 5.88679 28.089C6.5555 27.263 7.52298 26.8474 8.49785 27.0513C8.89522 27.1174 9.22837 27.2936 9.54162 27.4966L17.0007 32.6667L7.75935 32.6645Z" fill="white"/>
<path fill-rule="evenodd" clip-rule="evenodd" d="M28.2411 32.6645C29.2003 32.5521 29.9388 32.0195 30.3898 31.1132C30.8461 30.1983 30.7275 28.9002 30.114 28.089C29.4452 27.263 28.4776 26.8474 27.5027 27.0513C27.1055 27.1174 26.7725 27.2936 26.4589 27.4966L19 32.6667L28.2411 32.6645Z" fill="white"/>
</svg>
