<svg width="145" height="50" viewBox="0 0 145 50" fill="none" xmlns="http://www.w3.org/2000/svg">
<g clip-path="url(#clip0_9617_13793)">
<path fill-rule="evenodd" clip-rule="evenodd" d="M34.8955 13.895C41.3338 13.895 47.7721 13.895 54.2104 13.895C54.2104 15.7807 54.2104 17.6664 54.2104 19.5522C52.111 19.5522 50.0115 19.5522 47.9121 19.5522C49.9035 19.3439 51.933 19.2741 54.0005 19.3426C54.0005 17.5966 54.0005 15.8506 54.0005 14.1045C47.7021 14.1045 41.4038 14.1045 35.1055 14.1045C35.1055 15.8506 35.1055 17.5966 35.1055 19.3426C37.1729 19.2741 39.2024 19.3439 41.1939 19.5522C39.0944 19.5522 36.995 19.5522 34.8955 19.5522C34.8955 17.6664 34.8955 15.7807 34.8955 13.895Z" fill="white"/>
<path fill-rule="evenodd" clip-rule="evenodd" d="M55.0498 13.895C61.3481 13.895 67.6465 13.895 73.9448 13.895C73.9448 15.8506 73.9448 17.8061 73.9448 19.7617C70.0258 19.7617 66.107 19.7617 62.1879 19.7617C62.1879 20.5299 62.1879 21.2982 62.1879 22.0664C66.0368 22.2061 69.886 22.3458 73.7349 22.4855C69.8158 22.4855 65.897 22.4855 61.978 22.4855C61.978 21.4379 61.978 20.3903 61.978 19.3426C65.897 19.3426 69.8158 19.3426 73.7349 19.3426C73.7349 17.5966 73.7349 15.8506 73.7349 14.1045C67.5766 14.1045 61.4181 14.1045 55.2597 14.1045C55.2597 21.368 55.2597 28.6315 55.2597 35.895C55.1898 35.895 55.1198 35.895 55.0498 35.895C55.0498 28.5617 55.0498 21.2284 55.0498 13.895Z" fill="white"/>
<path fill-rule="evenodd" clip-rule="evenodd" d="M96.8291 13.895C98.6487 13.895 100.468 13.895 102.288 13.895C102.504 14.3176 102.714 14.7366 102.917 15.1522C102.495 14.9759 102.215 14.6617 102.078 14.2093C101.308 14.1744 100.538 14.1395 99.7683 14.1045C98.9149 14.1069 98.145 14.2466 97.4589 14.5236C97.1791 14.3839 96.9691 14.1744 96.8291 13.895Z" fill="white"/>
<path fill-rule="evenodd" clip-rule="evenodd" d="M105.437 13.895C107.256 13.895 109.075 13.895 110.895 13.895C110.895 14.0347 110.895 14.1744 110.895 14.3141C110.615 14.5934 110.335 14.8728 110.055 15.1522C110.168 14.8133 110.238 14.4641 110.265 14.1045C108.644 14.0486 107.034 14.1184 105.437 14.3141C105.437 14.1744 105.437 14.0347 105.437 13.895Z" fill="white"/>
<path fill-rule="evenodd" clip-rule="evenodd" d="M47.9111 19.5526C47.8983 24.9593 47.8983 30.4069 47.9111 35.8955C45.6717 35.8955 43.4323 35.8955 41.1929 35.8955C41.1929 30.4478 41.1929 25.0002 41.1929 19.5526C39.2014 19.3444 37.172 19.2745 35.1045 19.3431C35.1045 17.5971 35.1045 15.851 35.1045 14.105C41.4028 14.105 47.7012 14.105 53.9995 14.105C53.9995 15.851 53.9995 17.5971 53.9995 19.3431C51.932 19.2745 49.9026 19.3444 47.9111 19.5526Z" fill="white"/>
<path fill-rule="evenodd" clip-rule="evenodd" d="M73.7349 22.4859C73.7349 24.1621 73.7349 25.8383 73.7349 27.5145C69.8159 27.5145 65.897 27.5145 61.978 27.5145C61.978 28.4923 61.978 29.4701 61.978 30.4478C65.897 30.4478 69.8159 30.4478 73.7349 30.4478C73.7349 32.2637 73.7349 34.0796 73.7349 35.8955C67.5766 35.8955 61.4181 35.8955 55.2598 35.8955C55.2598 28.632 55.2598 21.3685 55.2598 14.105C61.4181 14.105 67.5766 14.105 73.7349 14.105C73.7349 15.851 73.7349 17.5971 73.7349 19.3431C69.8159 19.3431 65.897 19.3431 61.978 19.3431C61.978 20.3907 61.978 21.4383 61.978 22.4859C65.897 22.4859 69.8159 22.4859 73.7349 22.4859Z" fill="white"/>
<path fill-rule="evenodd" clip-rule="evenodd" d="M74.7842 13.895C79.6129 13.895 84.4416 13.895 89.2704 13.895C89.5502 14.1045 89.8303 14.3141 90.1101 14.5236C89.483 14.4193 88.8532 14.3145 88.2206 14.2093C83.8823 14.1046 79.5434 14.0696 75.2041 14.1045C75.2041 21.368 75.2041 28.6315 75.2041 35.895C75.064 35.895 74.9242 35.895 74.7842 35.895C74.7842 28.5617 74.7842 21.2284 74.7842 13.895Z" fill="white"/>
<path fill-rule="evenodd" clip-rule="evenodd" d="M90.1102 14.5239C90.2502 14.5239 90.39 14.5239 90.5301 14.5239C90.9327 15.0766 91.4927 15.4258 92.2096 15.5716C93.6398 16.3718 94.6194 17.5591 95.1489 19.1335C95.2572 20.1119 95.537 21.0198 95.9886 21.8573C96.1287 21.8573 96.1986 21.9271 96.1986 22.0668C96.0674 24.2751 95.8925 26.51 95.6737 28.7716C95.5337 28.9112 95.3939 29.0509 95.2538 29.1906C95.2093 30.1151 94.9295 30.9532 94.414 31.7049C93.9727 32.1767 93.5877 32.6656 93.2593 33.1716C92.7532 33.3846 92.4032 33.7339 92.2096 34.2192C92.1378 34.3948 91.998 34.4646 91.7897 34.4287C91.2848 34.5055 90.795 34.6452 90.3201 34.8477C90.0655 34.8995 89.9254 35.0392 89.9002 35.2668C88.861 35.3234 87.8812 35.5329 86.961 35.8954C83.042 35.8954 79.1231 35.8954 75.2041 35.8954C75.2041 28.6319 75.2041 21.3684 75.2041 14.1049C79.5434 14.07 83.8824 14.1049 88.2207 14.2096C88.8532 14.3149 89.4831 14.4196 90.1102 14.5239ZM87.171 20.3906C87.4678 20.8749 87.8526 21.294 88.3256 21.6477C88.6536 22.1626 88.8635 22.7213 88.9555 23.3239C89.0951 24.7267 89.06 26.1235 88.8505 27.5144C88.5102 27.884 88.2303 28.3031 88.0107 28.7716C87.6244 29.121 87.2045 29.4353 86.7511 29.7144C85.2246 29.9869 83.685 30.0916 82.1323 30.0287C82.1323 26.6065 82.1323 23.1842 82.1323 19.762C83.8545 19.6984 85.534 19.9079 87.171 20.3906Z" fill="white"/>
<path fill-rule="evenodd" clip-rule="evenodd" d="M90.5303 14.5239C91.196 14.7201 91.7559 15.0693 92.2098 15.5715C91.4929 15.4258 90.9329 15.0766 90.5303 14.5239Z" fill="white"/>
<path fill-rule="evenodd" clip-rule="evenodd" d="M97.6689 14.9429C98.3649 15.4929 98.8549 16.1913 99.1386 17.0381C98.4867 16.4567 97.9969 15.7583 97.6689 14.9429Z" fill="white"/>
<path fill-rule="evenodd" clip-rule="evenodd" d="M102.918 15.1522C102.863 15.6738 103.073 16.023 103.547 16.1998C103.492 16.5095 103.562 16.7889 103.757 17.0379C104.319 16.6161 104.669 16.0574 104.807 15.3617C105.208 15.1552 105.418 14.806 105.437 14.3141C107.035 14.1185 108.644 14.0486 110.266 14.1046C110.239 14.4642 110.169 14.8134 110.056 15.1522C109.965 15.4056 109.825 15.6152 109.636 15.7808C109.276 15.9495 108.926 16.159 108.586 16.4094C108.482 17.3058 108.028 18.0741 107.221 18.7141C107.12 18.9128 107.085 19.1223 107.116 19.3427C107.132 19.6626 106.992 19.8721 106.697 19.9713C106.45 19.9254 106.24 19.9952 106.067 20.1808C106.23 20.8271 106.58 21.316 107.116 21.6475C107.286 22.9002 107.916 23.8082 109.006 24.3713C109.389 24.7165 109.669 25.1355 109.846 25.6284C110.079 26.0589 110.288 26.5128 110.476 26.9903C110.391 27.1884 110.25 27.3281 110.056 27.4094C108.726 27.5491 107.396 27.5491 106.067 27.4094C105.408 26.2987 104.708 25.2161 103.967 24.1617C103.8 24.2575 103.73 24.3972 103.757 24.5808C103.662 25.0135 103.452 25.3627 103.127 25.6284C102.531 26.0177 102.181 26.5764 102.078 27.3046C100.486 27.5069 98.8767 27.5768 97.249 27.5141C97.2761 27.1546 97.346 26.8054 97.459 26.4665C97.7913 25.6545 98.2813 24.9561 98.9286 24.3713C99.9537 23.3484 100.723 22.1611 101.238 20.8094C101.795 20.3984 101.759 20.0492 101.133 19.7617C100.919 19.391 100.884 19.0418 101.028 18.7141C100.806 18.6291 100.526 18.6291 100.188 18.7141C99.731 18.22 99.381 17.6613 99.1385 17.0379C98.8549 16.1911 98.3649 15.4927 97.6689 14.9427C97.493 14.8711 97.4229 14.7314 97.459 14.5237C98.1451 14.2466 98.9149 14.1069 99.7684 14.1046C100.538 14.1395 101.308 14.1744 102.078 14.2094C102.215 14.6617 102.495 14.976 102.918 15.1522Z" fill="white"/>
<path fill-rule="evenodd" clip-rule="evenodd" d="M105.436 14.3145C105.417 14.8064 105.207 15.1556 104.807 15.3621C104.859 14.9066 105.069 14.5574 105.436 14.3145Z" fill="white"/>
<path fill-rule="evenodd" clip-rule="evenodd" d="M102.918 15.1523C103.209 15.4455 103.419 15.7947 103.547 16.2C103.073 16.0231 102.863 15.6739 102.918 15.1523Z" fill="white"/>
<path fill-rule="evenodd" clip-rule="evenodd" d="M104.806 15.3618C104.668 16.0574 104.318 16.6162 103.756 17.038C103.561 16.7889 103.491 16.5095 103.546 16.1999C103.698 16.2874 103.803 16.4271 103.861 16.619C104.13 16.1481 104.444 15.7291 104.806 15.3618Z" fill="white"/>
<path fill-rule="evenodd" clip-rule="evenodd" d="M109.635 15.7808C108.945 17.0941 108.105 18.2814 107.116 19.3427C107.084 19.1222 107.119 18.9127 107.221 18.7141C108.027 18.074 108.481 17.3058 108.585 16.4093C108.926 16.159 109.275 15.9494 109.635 15.7808Z" fill="white"/>
<path fill-rule="evenodd" clip-rule="evenodd" d="M47.912 19.5522C50.0115 19.5522 52.1109 19.5522 54.2104 19.5522C52.1369 19.6241 50.1074 19.8336 48.122 20.1808C47.9322 20.0323 47.8622 19.8227 47.912 19.5522Z" fill="white"/>
<path fill-rule="evenodd" clip-rule="evenodd" d="M95.1494 19.1333C95.677 19.9458 95.9569 20.8537 95.9892 21.8571C95.5376 21.0196 95.2577 20.1117 95.1494 19.1333Z" fill="white"/>
<path fill-rule="evenodd" clip-rule="evenodd" d="M101.237 20.8094C100.903 20.1201 100.553 19.4217 100.188 18.7142C100.525 18.6291 100.805 18.6291 101.027 18.7142C100.883 19.0418 100.918 19.3911 101.132 19.7618C101.759 20.0492 101.794 20.3985 101.237 20.8094Z" fill="white"/>
<path fill-rule="evenodd" clip-rule="evenodd" d="M106.696 19.9717C106.714 20.1803 106.644 20.3549 106.486 20.4955C106.75 20.8602 106.96 21.2443 107.116 21.6478C106.58 21.3164 106.23 20.8275 106.066 20.1812C106.24 19.9956 106.45 19.9258 106.696 19.9717Z" fill="white"/>
<path fill-rule="evenodd" clip-rule="evenodd" d="M87.1715 20.3907C85.5345 19.908 83.855 19.6985 82.1328 19.7621C82.1328 23.1843 82.1328 26.6066 82.1328 30.0288C83.6855 30.0917 85.2251 29.987 86.7516 29.7145C87.205 29.4354 87.6249 29.1211 88.0112 28.7716C88.0089 29.0896 87.8691 29.334 87.5913 29.505C87.0213 29.9047 86.3915 30.1841 85.7018 30.3431C84.3739 30.4477 83.0444 30.4827 81.7129 30.4478C81.7129 26.8161 81.7129 23.1843 81.7129 19.5526C83.1143 19.5178 84.514 19.5527 85.9118 19.6574C86.4112 19.8074 86.8311 20.0519 87.1715 20.3907Z" fill="white"/>
<path fill-rule="evenodd" clip-rule="evenodd" d="M34.8955 19.7618C34.8955 19.6919 34.8955 19.6221 34.8955 19.5522C36.995 19.5522 39.0944 19.5522 41.1939 19.5522C41.1939 24.9999 41.1939 30.4475 41.1939 35.8951C41.1239 35.8951 41.0539 35.8951 40.9839 35.8951C40.9839 30.5173 40.9839 25.1396 40.9839 19.7618C38.9544 19.7618 36.925 19.7618 34.8955 19.7618Z" fill="white"/>
<path fill-rule="evenodd" clip-rule="evenodd" d="M47.912 19.5522C47.8622 19.8227 47.9322 20.0323 48.122 20.1808C48.122 25.4189 48.122 30.657 48.122 35.8951C48.052 35.8951 47.982 35.8951 47.912 35.8951C47.8992 30.4066 47.8992 24.959 47.912 19.5522Z" fill="white"/>
<path fill-rule="evenodd" clip-rule="evenodd" d="M87.1709 20.3906C88.1604 20.856 88.8253 21.6243 89.1654 22.6954C89.639 24.3667 89.534 25.973 88.8505 27.5144C89.06 26.1235 89.095 24.7267 88.9554 23.324C88.8635 22.7214 88.6535 22.1626 88.3256 21.6478C87.8526 21.294 87.4678 20.8749 87.1709 20.3906Z" fill="white"/>
<path fill-rule="evenodd" clip-rule="evenodd" d="M62.1875 22.0665C66.1827 21.9295 70.1018 22.0692 73.9444 22.4855C73.8745 22.4855 73.8044 22.4855 73.7345 22.4855C69.8855 22.3459 66.0364 22.2062 62.1875 22.0665Z" fill="white"/>
<path fill-rule="evenodd" clip-rule="evenodd" d="M101.237 20.8096C100.723 22.1613 99.9529 23.3486 98.9277 24.3715C99.6164 23.1267 100.386 21.9394 101.237 20.8096Z" fill="white"/>
<path fill-rule="evenodd" clip-rule="evenodd" d="M107.116 21.6475C107.901 22.4441 108.531 23.352 109.006 24.3713C107.916 23.8082 107.286 22.9002 107.116 21.6475Z" fill="white"/>
<path fill-rule="evenodd" clip-rule="evenodd" d="M103.127 25.6284C102.942 26.2991 102.593 26.8579 102.077 27.3046C102.181 26.5764 102.531 26.0177 103.127 25.6284Z" fill="white"/>
<path fill-rule="evenodd" clip-rule="evenodd" d="M97.4586 26.4668C97.3457 26.8056 97.2757 27.1549 97.2487 27.5144C98.8764 27.5771 100.486 27.5072 102.077 27.3049C100.412 27.7173 98.6624 27.857 96.8288 27.7239C96.729 27.1346 96.939 26.7156 97.4586 26.4668Z" fill="white"/>
<path fill-rule="evenodd" clip-rule="evenodd" d="M109.845 25.6288C110.295 25.9704 110.645 26.3895 110.895 26.8859C110.895 27.1653 110.895 27.4447 110.895 27.724C109.214 27.7589 107.534 27.724 105.856 27.6193C105.267 26.5114 104.567 25.4987 103.757 24.5812C103.729 24.3975 103.799 24.2578 103.967 24.1621C104.708 25.2165 105.408 26.299 106.066 27.4097C107.396 27.5494 108.726 27.5494 110.055 27.4097C110.25 27.3285 110.39 27.1888 110.475 26.9907C110.288 26.5132 110.078 26.0592 109.845 25.6288Z" fill="white"/>
<path fill-rule="evenodd" clip-rule="evenodd" d="M88.8505 27.5142C88.8226 28.1147 88.5427 28.5337 88.0107 28.7713C88.2303 28.3028 88.5102 27.8838 88.8505 27.5142Z" fill="white"/>
<path fill-rule="evenodd" clip-rule="evenodd" d="M96.199 22.0669C96.798 25.537 96.2731 28.8196 94.6244 31.9145C94.3292 32.5239 93.8745 32.943 93.2598 33.1717C93.5881 32.6657 93.9732 32.1768 94.4145 31.705C94.9299 30.9533 95.2097 30.1152 95.2542 29.1907C95.3943 29.051 95.5341 28.9113 95.6741 28.7717C95.8929 26.5101 96.0678 24.2752 96.199 22.0669Z" fill="white"/>
<path fill-rule="evenodd" clip-rule="evenodd" d="M73.7344 22.4858C73.8044 22.4858 73.8745 22.4858 73.9444 22.4858C73.9444 24.2319 73.9444 25.9779 73.9444 27.7239C70.0254 27.7239 66.1065 27.7239 62.1875 27.7239C62.1875 28.562 62.1875 29.4001 62.1875 30.2382C66.1277 30.2946 70.0117 30.2247 73.8394 30.0287C73.9444 31.983 73.9792 33.9386 73.9444 35.8954C73.8745 35.8954 73.8044 35.8954 73.7344 35.8954C73.7344 34.0795 73.7344 32.2636 73.7344 30.4477C69.8154 30.4477 65.8966 30.4477 61.9775 30.4477C61.9775 29.47 61.9775 28.4922 61.9775 27.5144C65.8966 27.5144 69.8154 27.5144 73.7344 27.5144C73.7344 25.8382 73.7344 24.162 73.7344 22.4858Z" fill="white"/>
<path fill-rule="evenodd" clip-rule="evenodd" d="M93.2597 33.1714C93.1245 33.7254 92.7745 34.0746 92.21 34.219C92.4035 33.7337 92.7535 33.3845 93.2597 33.1714Z" fill="white"/>
<path fill-rule="evenodd" clip-rule="evenodd" d="M91.7899 34.4287C91.2531 34.8703 90.6232 35.1497 89.9004 35.2668C89.9256 35.0393 90.0656 34.8996 90.3203 34.8478C90.7952 34.6452 91.285 34.5055 91.7899 34.4287Z" fill="white"/>
<path fill-rule="evenodd" clip-rule="evenodd" d="M89.9002 35.2666C89.5701 35.5153 89.2202 35.7248 88.8504 35.8952C88.2206 35.8952 87.5908 35.8952 86.9609 35.8952C87.8811 35.5327 88.8609 35.3232 89.9002 35.2666Z" fill="white"/>
</g>
<defs>
<clipPath id="clip0_9617_13793">
<rect width="76" height="22" fill="white" transform="translate(35 14)"/>
</clipPath>
</defs>
</svg>
