<svg width="168" height="50" viewBox="0 0 168 50" fill="none" xmlns="http://www.w3.org/2000/svg">
<g clip-path="url(#clip0_13381_46640)">
<path fill-rule="evenodd" clip-rule="evenodd" d="M21.954 27.0495C22.1896 26.6735 22.163 26.312 21.8741 25.965C20.4898 24.8816 19.2109 23.6938 18.0375 22.4016C17.7963 21.5055 18.0361 20.7567 18.7568 20.1551C18.9636 20.0792 19.1767 20.0534 19.3963 20.0777C19.2767 20.4006 19.2767 20.7104 19.3963 21.0072C20.8359 22.1702 22.1947 23.4097 23.4727 24.7256C23.5848 25.2567 23.5315 25.7731 23.3129 26.2749C23.0126 26.5139 22.7728 26.7979 22.5935 27.127C22.3651 27.2167 22.152 27.1909 21.954 27.0495Z" fill="white"/>
<path fill-rule="evenodd" clip-rule="evenodd" d="M50.2491 20.2324C50.6043 20.1825 50.8975 20.2858 51.1284 20.5423C52.3059 23.1335 53.4783 25.7157 54.6453 28.2887C54.8739 28.7307 55.007 29.1955 55.0449 29.6831C54.2969 29.7088 53.551 29.683 52.8069 29.6056C52.5348 29.2593 52.375 28.872 52.3273 28.4437C51.1551 28.4437 49.9826 28.4437 48.8104 28.4437C48.7628 28.872 48.6029 29.2593 48.3308 29.6056C47.5867 29.683 46.8408 29.7088 46.0928 29.6831C47.3541 26.4807 48.7394 23.3305 50.2491 20.2324ZM50.409 24.7254C50.5682 24.7121 50.7014 24.7637 50.8086 24.8803C51.0062 25.45 51.246 25.9922 51.528 26.5071C50.9418 26.6103 50.3558 26.6103 49.7696 26.5071C50.0309 25.9277 50.2442 25.3338 50.409 24.7254Z" fill="white"/>
<path fill-rule="evenodd" clip-rule="evenodd" d="M56.004 20.2325C56.3485 20.2127 56.6682 20.2902 56.9631 20.4649C58.4231 22.0867 59.9418 23.6618 61.5191 25.1903C61.5991 23.6418 61.6256 22.0925 61.5991 20.5424C62.3451 20.5424 63.091 20.5424 63.8371 20.5424C63.8371 23.641 63.8371 26.7396 63.8371 29.8382C63.5131 29.8633 63.1933 29.8375 62.8779 29.7607C61.2987 28.0758 59.7268 26.3974 58.1621 24.7255C58.0821 26.3773 58.0554 28.0298 58.0821 29.6832C57.3469 29.7297 56.6276 29.6781 55.924 29.5283C55.7929 26.4184 55.8195 23.3198 56.004 20.2325Z" fill="white"/>
<path fill-rule="evenodd" clip-rule="evenodd" d="M69.5921 20.2324C71.5721 20.2615 73.0641 21.0878 74.0682 22.7113C73.5854 23.1786 73.0524 23.5917 72.4696 23.9507C72.0709 23.4354 71.5913 22.9964 71.0308 22.6338C67.9754 22.2393 66.8299 23.5045 67.5938 26.4296C68.595 27.6978 69.8472 27.9818 71.3506 27.2817C71.7003 26.9427 72.0467 26.607 72.3896 26.2747C73.0211 26.5412 73.5806 26.9027 74.0682 27.3592C73.2013 28.9686 71.8157 29.7949 69.9118 29.8381C68.4584 29.7999 67.2329 29.2835 66.235 28.2888C64.5952 26.209 64.542 24.0916 66.0752 21.9366C67.0909 21.0313 68.2632 20.4632 69.5921 20.2324Z" fill="white"/>
<path fill-rule="evenodd" clip-rule="evenodd" d="M82.381 20.2326C82.9098 20.1511 83.256 20.3577 83.4201 20.8524C84.6769 23.8035 85.9291 26.7472 87.1768 29.6833C86.4288 29.709 85.6829 29.6832 84.9387 29.6059C84.6663 29.2592 84.5065 28.8719 84.4591 28.4439C83.3389 28.4181 82.2198 28.444 81.1021 28.5214C80.8059 28.8374 80.5928 29.1989 80.4626 29.6059C79.7185 29.6832 78.9726 29.709 78.2246 29.6833C79.3919 26.44 80.7773 23.2897 82.381 20.2326ZM82.5408 24.5707C82.9192 25.1473 83.2389 25.767 83.5 26.4298C82.9672 26.6364 82.4342 26.6364 81.9014 26.4298C82.2074 25.8376 82.4205 25.2178 82.5408 24.5707Z" fill="white"/>
<path fill-rule="evenodd" clip-rule="evenodd" d="M141.21 20.2324C142.034 20.3769 142.833 20.6093 143.607 20.9296C144.024 21.254 144.343 21.6413 144.567 22.0916C144.292 22.6404 143.866 23.0536 143.288 23.331C142.698 22.6578 141.952 22.3738 141.05 22.4789C140.77 22.7507 140.663 23.0863 140.73 23.4859C141.794 23.8208 142.807 24.2598 143.767 24.8028C145.349 26.5182 145.19 28.0675 143.288 29.4507C141.257 30.1576 139.551 29.7186 138.172 28.1338C137.991 27.8899 137.965 27.6317 138.092 27.3592C138.52 27.0471 138.947 26.7372 139.371 26.4296C140.026 27.4838 140.959 27.8711 142.169 27.5916C142.792 27.1344 142.739 26.7213 142.009 26.3521C140.754 25.9635 139.661 25.3179 138.732 24.4155C138.083 23.1464 138.269 22.0102 139.291 21.0071C139.929 20.7003 140.568 20.4421 141.21 20.2324Z" fill="white"/>
<path fill-rule="evenodd" clip-rule="evenodd" d="M26.2702 20.5425C28.4017 20.5425 30.5332 20.5425 32.6646 20.5425C32.7121 21.2036 32.6589 21.8492 32.5048 22.4791C31.1736 22.5565 29.8415 22.5823 28.5083 22.5566C28.5083 23.1246 28.5083 23.6927 28.5083 24.2608C29.5753 24.235 30.6411 24.2609 31.7055 24.3383C31.8596 24.9682 31.9128 25.6137 31.8653 26.2749C30.7463 26.2749 29.6273 26.2749 28.5083 26.2749C28.5349 27.3606 28.5082 28.4451 28.4284 29.5284C27.7356 29.735 27.0429 29.735 26.3502 29.5284C26.2702 26.5335 26.2436 23.5382 26.2702 20.5425Z" fill="white"/>
<path fill-rule="evenodd" clip-rule="evenodd" d="M33.4636 20.5425C34.2097 20.5425 34.9556 20.5425 35.7017 20.5425C35.7284 23.5382 35.7017 26.5335 35.6217 29.5284C34.9291 29.735 34.2362 29.735 33.5436 29.5284C33.4636 26.5335 33.4369 23.5382 33.4636 20.5425Z" fill="white"/>
<path fill-rule="evenodd" clip-rule="evenodd" d="M42.8954 25.19C42.905 25.2742 42.9583 25.3258 43.0553 25.345C43.2668 23.7711 43.2668 22.2218 43.0553 20.6971C43.8121 20.492 44.5847 20.492 45.3733 20.6971C45.4799 23.6407 45.4799 26.5844 45.3733 29.5281C45.0903 29.8252 44.7439 29.9027 44.3342 29.7605C42.8155 28.1337 41.2968 26.5069 39.7782 24.8802C39.7513 26.4321 39.6714 27.9813 39.5384 29.5281C38.814 29.7311 38.0947 29.7311 37.3803 29.5281C37.2736 26.4811 37.2736 23.4342 37.3803 20.3872C37.6562 20.2205 37.9492 20.1947 38.2595 20.3098C39.7516 21.992 41.297 23.6188 42.8954 25.19Z" fill="white"/>
<path fill-rule="evenodd" clip-rule="evenodd" d="M75.1873 20.5425C75.9333 20.5425 76.6792 20.5425 77.4253 20.5425C77.452 23.5382 77.4253 26.5335 77.3454 29.5284C76.6527 29.735 75.9599 29.735 75.2672 29.5284C75.1873 26.5335 75.1606 23.5382 75.1873 20.5425Z" fill="white"/>
<path fill-rule="evenodd" clip-rule="evenodd" d="M87.9758 20.5425C88.7219 20.5425 89.4678 20.5425 90.2139 20.5425C90.2139 22.8664 90.2139 25.1904 90.2139 27.5143C91.533 27.4654 92.8386 27.517 94.1304 27.6692C94.2531 28.2979 94.2264 28.9176 94.0505 29.5284C92.0424 29.7331 90.0441 29.7331 88.0558 29.5284C87.9758 26.5335 87.9491 23.5382 87.9758 20.5425Z" fill="white"/>
<path fill-rule="evenodd" clip-rule="evenodd" d="M98.207 20.5425C100.285 20.5425 102.363 20.5425 104.442 20.5425C104.442 21.2138 104.442 21.8852 104.442 22.5566C103.109 22.5566 101.777 22.5566 100.445 22.5566C100.445 22.9697 100.445 23.3829 100.445 23.796C101.406 23.7703 102.365 23.7961 103.323 23.8735C103.477 24.5034 103.53 25.1489 103.482 25.8101C102.47 25.8101 101.457 25.8101 100.445 25.8101C100.445 26.3782 100.445 26.9462 100.445 27.5143C101.832 27.4885 103.217 27.5143 104.601 27.5918C104.782 28.2237 104.809 28.8692 104.681 29.5284C102.536 29.6817 100.378 29.7334 98.207 29.6833C98.207 26.6364 98.207 23.5894 98.207 20.5425Z" fill="white"/>
<path fill-rule="evenodd" clip-rule="evenodd" d="M105.241 20.5423C106.042 20.5166 106.841 20.5424 107.639 20.6198C108.019 21.2269 108.418 21.8208 108.838 22.4015C108.915 22.5484 108.942 22.7033 108.918 22.8663C109.078 22.8663 109.238 22.8663 109.397 22.8663C109.737 22.0872 110.163 21.3384 110.676 20.6198C111.534 20.4913 112.387 20.5171 113.234 20.6973C112.349 22.129 111.443 23.5492 110.516 24.9578C111.52 26.4678 112.453 27.9913 113.314 29.5282C112.555 29.7041 111.782 29.7299 110.996 29.6057C110.441 28.7129 109.828 27.8608 109.158 27.0494C108.539 27.8607 107.979 28.7128 107.479 29.6057C106.682 29.6831 105.882 29.7089 105.081 29.6832C105.061 29.3494 105.141 29.0395 105.321 28.7536C106.213 27.5281 107.039 26.2629 107.799 24.9578C107.181 23.7848 106.461 22.6745 105.641 21.6268C105.415 21.2937 105.282 20.9322 105.241 20.5423Z" fill="white"/>
<path fill-rule="evenodd" clip-rule="evenodd" d="M114.033 20.5424C115.633 20.5166 117.232 20.5424 118.829 20.6198C120.973 21.5293 121.586 23.0528 120.668 25.1903C119.538 26.4205 118.126 26.8853 116.431 26.5846C116.458 27.5672 116.431 28.5484 116.351 29.5283C115.605 29.7349 114.859 29.7349 114.113 29.5283C114.033 26.5334 114.007 23.5381 114.033 20.5424ZM116.431 22.5565C117.073 22.5308 117.712 22.5567 118.35 22.6339C118.594 22.8892 118.701 23.1991 118.669 23.5635C118.649 23.8704 118.542 24.1286 118.35 24.3382C117.712 24.4154 117.073 24.4413 116.431 24.4156C116.431 23.7959 116.431 23.1762 116.431 22.5565Z" fill="white"/>
<path fill-rule="evenodd" clip-rule="evenodd" d="M122.186 20.5424C123.732 20.5166 125.278 20.5424 126.822 20.6198C128.724 21.2329 129.444 22.4982 128.98 24.4156C128.759 25.1454 128.306 25.6877 127.621 26.0424C128.474 27.1785 129.327 28.3147 130.179 29.4508C129.409 29.6996 128.609 29.7513 127.781 29.6058C126.982 28.6245 126.183 27.6433 125.383 26.6621C125.068 26.5853 124.748 26.5595 124.424 26.5846C124.451 27.5672 124.424 28.5484 124.344 29.5283C123.641 29.6781 122.921 29.7297 122.186 29.6832C122.186 26.6363 122.186 23.5893 122.186 20.5424ZM124.424 22.5565C125.066 22.5308 125.705 22.5567 126.342 22.6339C126.898 23.1269 126.952 23.6692 126.502 24.2607C125.818 24.4144 125.125 24.4661 124.424 24.4156C124.424 23.7959 124.424 23.1762 124.424 22.5565Z" fill="white"/>
<path fill-rule="evenodd" clip-rule="evenodd" d="M130.818 20.5425C132.95 20.5425 135.081 20.5425 137.213 20.5425C137.213 21.2138 137.213 21.8852 137.213 22.5566C135.827 22.5566 134.442 22.5566 133.056 22.5566C133.056 22.9697 133.056 23.3829 133.056 23.796C134.069 23.796 135.081 23.796 136.094 23.796C136.094 24.4674 136.094 25.1387 136.094 25.8101C135.081 25.8101 134.069 25.8101 133.056 25.8101C133.056 26.3782 133.056 26.9462 133.056 27.5143C134.482 27.4652 135.894 27.5168 137.293 27.6692C137.42 28.3284 137.393 28.974 137.213 29.6059C135.079 29.7349 132.948 29.709 130.818 29.5284C130.605 26.5285 130.605 23.5332 130.818 20.5425Z" fill="white"/>
<path fill-rule="evenodd" clip-rule="evenodd" d="M151.92 21.6268C151.92 21.9366 151.92 22.2465 151.92 22.5564C151.498 22.8129 151.072 23.0711 150.641 23.331C150.351 23.1273 150.084 22.8949 149.842 22.6338C149.309 22.324 148.776 22.324 148.243 22.6338C148.04 22.9506 148.093 23.2346 148.403 23.4859C149.731 23.9495 150.903 24.6208 151.92 25.5C151.92 26.4812 151.92 27.4625 151.92 28.4437C151.229 29.3759 150.27 29.8407 149.043 29.8381C147.372 29.7793 146.147 29.0563 145.366 27.669C145.383 27.5231 145.436 27.394 145.526 27.2817C145.974 27.0279 146.4 26.7439 146.804 26.4296C147.506 27.4679 148.465 27.8552 149.682 27.5916C150.124 27.132 150.071 26.7189 149.522 26.3521C148.024 25.9507 146.825 25.1502 145.925 23.9507C145.619 21.6885 146.658 20.449 149.043 20.2324C150.145 20.4246 151.105 20.8893 151.92 21.6268Z" fill="white"/>
<path fill-rule="evenodd" clip-rule="evenodd" d="M43.0554 20.6973C43.2669 22.2219 43.2669 23.7712 43.0554 25.3452C42.9583 25.326 42.9051 25.2744 42.8955 25.1902C43.0544 23.7206 43.1076 22.223 43.0554 20.6973Z" fill="white"/>
<path fill-rule="evenodd" clip-rule="evenodd" d="M21.9538 27.0495C21.8997 27.4142 21.8198 27.7757 21.714 28.134C21.4353 28.4162 21.1955 28.726 20.9946 29.0636C20.8107 29.2543 20.6242 29.2543 20.4351 29.0636C20.2532 29.7787 19.9068 30.3984 19.396 30.9228C19.1829 30.9228 18.9697 30.9228 18.7566 30.9228C18.7822 30.6595 18.7555 30.4013 18.6766 30.1481C17.4418 29.028 16.1896 27.9435 14.9199 26.8946C14.9199 26.1716 14.9199 25.4486 14.9199 24.7256C15.1962 24.4728 15.4893 24.2146 15.7992 23.9509C15.9226 23.9734 16.0291 24.025 16.1189 24.1059C16.223 23.336 16.5427 22.6647 17.078 22.0918C17.2397 21.9622 17.4262 21.9105 17.6375 21.9368C17.6114 22.302 17.6381 22.6635 17.7175 23.0214C19.3295 24.1966 20.7416 25.5394 21.9538 27.0495ZM16.1988 24.2608C17.5052 25.6353 18.9173 26.9264 20.4351 28.134C20.5588 28.4289 20.5055 28.6871 20.2752 28.9087C19.0528 27.5692 17.7206 26.3298 16.2787 25.1904C16.0211 24.8874 15.9944 24.5775 16.1988 24.2608Z" fill="white"/>
</g>
<defs>
<clipPath id="clip0_13381_46640">
<rect width="137" height="11" fill="white" transform="translate(15 20)"/>
</clipPath>
</defs>
</svg>
