<svg width="145" height="50" viewBox="0 0 145 50" fill="none" xmlns="http://www.w3.org/2000/svg">
<path d="M24.5421 31.5908C28.0916 31.5908 30.9691 28.6489 30.9691 25.02C30.9691 21.3911 28.0916 18.4492 24.5421 18.4492C20.9927 18.4492 18.1152 21.3911 18.1152 25.02C18.1152 28.6489 20.9927 31.5908 24.5421 31.5908Z" fill="black"/>
<path d="M27.9605 26.4244L26.9088 27.0097V27.0244C27.2155 27.1561 27.5369 27.2293 27.8728 27.2146C28.1211 27.2293 28.3694 27.1854 28.6032 27.1268V22.7804L28.311 22.7658L27.9459 23.117V26.4244H27.9605ZM19.7369 24.2731V24.1853C19.7369 23.3951 19.7515 23.3219 20.5987 22.1804L20.5841 22.1658L19.8976 22.5463H19.3864C19.1235 22.5463 19.0212 22.5609 18.919 22.678C18.8459 22.7658 18.8313 22.8683 18.8459 22.9707H18.7437C18.656 22.839 18.6122 22.6926 18.6122 22.5317C18.5976 22.2975 18.6853 22.078 18.8459 21.917C19.0504 21.7268 19.328 21.639 19.5909 21.6829L20.3358 21.7414L20.8616 21.6829L20.9347 21.7268V25.9268C20.9347 26.4244 20.9201 26.5854 19.8392 27.6244L19.8538 27.6683L20.8178 27.3756H21.4167V21.6536H21.7088V24.2878H22.7751V22.3853L24.1335 21.639L24.2066 21.6829L24.0605 22.8243V27.0244L24.7178 27.5073V27.5805L23.7245 28.239H23.6515L22.8043 27.4341V25.1366H21.7234V27.7268L20.9201 28.2683H19.0358L18.992 28.1951C19.7223 27.2878 19.7808 27.0244 19.7808 26.4975V25.1219H18.5684L18.5538 25.0488L19.0942 24.3024H19.7369V24.2731ZM25.8717 25.1805C25.8571 25.7512 26.0616 26.3073 26.456 26.7171C26.5144 26.7902 26.5874 26.8488 26.6605 26.8927H26.6751L26.9088 26.6V23.2926L27.902 22.7512V22.7365C27.5369 22.678 27.1571 22.6341 26.7919 22.6195C26.0616 22.6195 25.7695 22.7512 25.565 22.9707C25.4335 23.117 25.3459 23.2926 25.3313 23.4975H25.1852C25.1122 23.3073 25.0684 23.117 25.0684 22.9122C25.0537 22.5902 25.1852 22.2829 25.4043 22.0487C25.6964 21.756 26.1492 21.5804 26.8796 21.5804C27.42 21.5804 28.2964 21.756 29.0413 21.756C29.5526 21.756 29.7133 21.6829 29.947 21.3463L30.0346 21.3609C29.8593 22.4878 29.4357 22.7951 28.8661 22.7951H28.8076V27.0244C29.2605 26.8634 29.6402 26.5268 29.8593 26.1024L29.947 26.1171C29.9324 26.6293 29.7133 27.1268 29.3481 27.4927C28.8223 27.9902 28.1211 28.2537 27.4054 28.2244C26.047 28.2976 24.8785 27.2585 24.8054 25.8975C24.8054 25.8244 24.8054 25.7512 24.8054 25.678C24.8054 25.078 25.0391 24.4927 25.4627 24.0536C25.7403 23.7756 26.0762 23.5561 26.4414 23.4244L26.4998 23.4975C26.0908 23.9658 25.8571 24.5658 25.8425 25.1951M31.5975 24.9609C31.6267 23.1024 30.8964 21.317 29.5964 19.9853C26.7481 17.2341 22.2347 17.2341 19.3864 19.9853C16.728 22.7658 16.728 27.1561 19.3864 29.9366C22.2347 32.6878 26.7481 32.6878 29.5964 29.9366C30.8964 28.6049 31.6121 26.8195 31.5975 24.9609Z" fill="white"/>
<path d="M36.8404 30.1849L36.6359 30.3459C36.3146 30.1264 35.9348 30.0093 35.5404 30.024C35.1022 30.024 34.664 30.1264 34.2697 30.3166V30.302C34.7079 30.0093 35.2337 29.863 35.7595 29.8776C36.1393 29.8483 36.5337 29.9654 36.8404 30.1849ZM121.749 29.9947C121.763 29.9069 121.792 29.8337 121.851 29.7752C121.982 29.7313 122.128 29.702 122.274 29.7166C122.888 29.6874 123.487 29.8922 123.954 30.302L123.764 30.4191C123.341 30.0093 122.669 29.9069 122.216 29.9069C122.041 29.9069 121.895 29.9361 121.749 29.9947ZM68.2738 29.9947C68.2885 29.9069 68.3177 29.8337 68.3761 29.7752C68.5222 29.7313 68.6682 29.7166 68.8143 29.7166C69.3986 29.702 69.9536 29.9069 70.3918 30.302L70.2019 30.4191C69.7929 30.0825 69.2817 29.8922 68.7559 29.9069C68.5806 29.8922 68.4199 29.9215 68.2738 29.9947ZM47.7077 29.1752C48.0583 29.5703 48.4673 29.9069 48.9201 30.1996L48.6718 30.3898C48.2336 30.0971 47.8392 29.7605 47.4886 29.3654L47.7077 29.1752ZM106.412 29.1752C106.762 29.5703 107.171 29.9069 107.624 30.1996L107.376 30.3898C106.938 30.0971 106.543 29.7605 106.193 29.3654L106.412 29.1752ZM85.0568 29.1752C85.4074 29.5703 85.8164 29.9069 86.2692 30.1996L86.0209 30.3898C85.5827 30.0971 85.1883 29.7605 84.8377 29.3654L85.0568 29.1752ZM102.745 29.102C103.125 29.541 103.563 29.9069 104.06 30.1996L103.812 30.3898C103.33 30.0971 102.892 29.7166 102.526 29.2922L102.745 29.102ZM44.0269 29.102C44.4066 29.541 44.8448 29.9069 45.3415 30.1996L45.1078 30.3898C44.6257 30.0971 44.1875 29.7166 43.8224 29.2922L44.0269 29.102ZM74.4524 28.941C74.9637 29.4532 75.5479 29.8922 76.176 30.2435L75.9277 30.4191C75.3142 30.0532 74.73 29.6142 74.2333 29.102L74.4524 28.941ZM79.4771 30.3605C79.0243 30.0971 78.6299 29.7459 78.3232 29.3215V28.1069C78.3232 27.741 78.3086 27.3752 78.2794 27.0239L78.5423 26.9215C78.5569 27.2142 78.5715 27.5947 78.5715 27.9752V29.2191C78.8929 29.6142 79.2872 29.9361 79.7254 30.1703L79.4771 30.3605ZM125.05 29.3508V27.2288L124.319 26.9069L124.465 26.7459L125.298 27.0971V29.5557L125.254 29.5703L125.05 29.3508ZM71.4873 29.3508V27.2288L70.757 26.9069L70.903 26.7459L71.721 27.0971V29.5557L71.6918 29.5703L71.4873 29.3508ZM80.1198 27.3313C80.1052 26.98 80.1344 26.6142 80.2074 26.2776C80.558 26.38 80.9378 26.4386 81.3029 26.4678V29.0581C81.0985 29.1459 80.894 29.2191 80.7187 29.3069C80.4996 29.1752 80.3097 29.0288 80.1344 28.8532L80.1198 27.3313ZM38.2281 25.0629H39.9954V25.2678H38.2281V25.0629ZM33.5247 25.341L33.7584 25.0629H35.1314V25.2678H34.5472C34.2112 25.2678 33.8753 25.2971 33.5247 25.341ZM56.2526 30.2142L55.9897 30.3752C55.5077 30.0825 55.0695 29.6874 54.7335 29.2337V25.6922C54.7335 24.8581 54.7189 24.4922 54.6897 24.1995L54.9672 24.0824V29.1313C55.3032 29.5849 55.7414 29.9508 56.2526 30.2142ZM78.4693 25.019C78.8928 24.7264 79.3018 24.4044 79.7108 24.0678C80.1928 24.4044 80.7479 24.6239 81.3175 24.741V26.2044C80.0468 26.102 79.1412 25.6922 78.4693 25.019ZM118.272 24.0678L118.301 24.0532C118.637 24.7556 119.032 25.4288 119.485 26.0581L118.258 26.7312L118.272 24.0678ZM123.779 27.3313L123.618 27.5069L121.982 26.7459V24.902C121.982 24.6239 121.968 24.3312 121.939 24.0532L122.231 23.9654V26.6142L123.779 27.3313ZM70.2165 27.3313L70.0559 27.5069L68.4345 26.7459V24.9166C68.4345 24.6385 68.4199 24.3459 68.3907 24.0678L68.6828 23.98V26.6288L70.2165 27.3313ZM100.949 29.1605C100.116 30.0386 98.9623 30.5215 97.7646 30.5069C96.3624 30.5069 95.2523 30.0532 94.4343 29.2483C93.6747 28.4874 93.2658 27.463 93.2804 26.3947C93.2804 25.4581 93.6747 24.5654 94.3613 23.9361L94.3759 23.9507C93.8062 24.5946 93.4995 25.4288 93.5287 26.2922C93.5287 27.3459 93.9377 28.3556 94.6826 29.102C95.4421 29.863 96.5084 30.2874 97.8668 30.2874C98.9769 30.3166 100.087 29.9069 100.949 29.1605ZM74.4378 24.0239H73.9996L74.1311 23.8044H74.4378V24.0239ZM77.8266 23.8044L77.6221 24.0678C77.2423 24.0239 76.8479 23.9946 76.4682 24.0239V23.8044H77.7974H77.8266ZM118.433 30.4044C117.717 29.7898 117.045 29.102 116.446 28.3556V25.2386C116.446 24.6239 116.417 24.0824 116.388 23.8629L116.651 23.8044C116.695 24.1995 116.709 24.6093 116.695 25.019V28.2678C117.294 28.9849 117.951 29.6581 118.667 30.2727L118.433 30.4044ZM82.6906 30.2142L82.4423 30.3752C82.0625 30.0532 81.7265 29.6874 81.4636 29.263V24.6385C80.8793 24.5215 80.3097 24.2873 79.8131 23.9507L79.9883 23.7751C80.5142 24.1263 81.0838 24.3605 81.6973 24.4922V29.1752C81.9748 29.5557 82.3108 29.9069 82.6906 30.2142ZM52.4403 30.2142L52.192 30.3752C51.8122 30.1118 51.4616 29.7898 51.1549 29.4386V24.3605C50.9942 24.1263 50.8043 23.9361 50.5706 23.7751L50.7897 23.6727C51.0234 23.8337 51.2425 24.0532 51.4032 24.2873V29.3361C51.7246 29.6727 52.0751 29.9654 52.4403 30.2142ZM89.7748 30.1996L89.5265 30.3605C89.1467 30.0971 88.7961 29.7752 88.4894 29.4239V24.3605C88.3287 24.1263 88.1388 23.9361 87.9051 23.7751L88.1242 23.6727C88.3725 23.8337 88.577 24.0532 88.7377 24.2873V29.3361C89.0591 29.6727 89.4096 29.9508 89.7748 30.1996ZM111.159 30.1996L110.911 30.3605C110.531 30.0971 110.18 29.7752 109.873 29.4239V24.3605C109.713 24.1263 109.523 23.9361 109.289 23.7751L109.508 23.6727C109.742 23.8337 109.961 24.0532 110.122 24.2873V29.3361C110.443 29.6727 110.779 29.9508 111.159 30.1996ZM114.489 30.1996L114.241 30.3605C113.861 30.0971 113.511 29.7752 113.204 29.4239V24.3605C113.043 24.1263 112.824 23.9215 112.59 23.7751L112.809 23.6727C113.058 23.8483 113.262 24.0532 113.437 24.302V29.3508C113.759 29.6727 114.109 29.9654 114.489 30.1996ZM85.1737 28.9557V24.3312C85.0276 24.1117 84.8524 23.9215 84.6625 23.7605L84.867 23.6434C85.0715 23.819 85.2613 24.0093 85.422 24.2288V28.7654L85.2029 28.941L85.1737 28.9557ZM102.862 28.8678V24.3312C102.716 24.1263 102.541 23.9361 102.351 23.7605L102.556 23.6434C102.76 23.819 102.95 24.0093 103.111 24.2288V28.6922L102.892 28.8678H102.862ZM61.9638 29.1313C62.2997 29.5849 62.7233 29.9361 63.22 30.1849L62.9716 30.3459C62.475 30.0679 62.0368 29.6727 61.7155 29.2044V24.141C61.5548 23.9946 61.3649 23.8629 61.1604 23.7605L61.3649 23.6434C61.5694 23.7605 61.7739 23.9068 61.9492 24.0678L61.9638 29.1313ZM106.543 28.9557V24.3312C106.397 24.1117 106.222 23.9215 106.032 23.7605L106.236 23.6434C106.441 23.819 106.631 24.0093 106.791 24.2288V28.7654L106.572 28.941L106.543 28.9557ZM44.1583 28.8678V24.3312C44.0123 24.1263 43.837 23.9361 43.6471 23.7605L43.8516 23.6434C44.0561 23.819 44.246 24.0093 44.4066 24.2288V28.6922L44.1875 28.8678H44.1583ZM47.8392 28.9557V24.3312C47.6931 24.1117 47.5179 23.9215 47.328 23.7605L47.5325 23.6434C47.737 23.819 47.9268 24.0093 48.0875 24.2288V28.7654L47.8684 28.941L47.8392 28.9557ZM65.0458 23.9507C64.9289 23.8629 64.8121 23.7751 64.6952 23.702L64.8997 23.5849C65.0458 23.6581 65.1626 23.7605 65.2795 23.8776V29.1459C65.5424 29.5557 65.8784 29.9069 66.2581 30.1996L66.0098 30.3605C65.6008 30.0532 65.2649 29.6581 65.0312 29.2191L65.0458 23.9507ZM56.6032 25.2239C56.6032 24.1703 56.647 23.7751 56.7638 23.3946C57.0706 23.5702 57.4211 23.7751 57.8593 24.0385V29.0435C57.6402 29.1313 57.4065 29.2191 57.202 29.3069C56.9829 29.1752 56.7931 29.0142 56.6178 28.8239L56.6032 25.2239ZM126.189 24.2873L126.014 24.5068C125.912 24.5361 125.809 24.5654 125.692 24.5507C124.918 24.5507 124.188 24.1995 123.691 23.6142V23.3654H123.721C124.217 23.98 124.977 24.3312 125.765 24.3459C125.912 24.3459 126.043 24.3166 126.189 24.2581V24.2873ZM72.6266 24.2873L72.4659 24.5068C72.3637 24.5361 72.2615 24.5654 72.1446 24.5507C71.3704 24.5507 70.6401 24.1995 70.1581 23.6142V23.3654H70.1873C70.6839 23.98 71.4289 24.3312 72.2176 24.3459C72.3637 24.3459 72.4952 24.3166 72.6412 24.2581L72.6266 24.2873ZM119.631 25.9849C119.105 25.2532 118.652 24.4922 118.272 23.6727V23.2922L118.301 23.2776C118.71 24.1995 119.222 25.0776 119.835 25.8825L119.631 25.9849ZM109.202 29.4239L109.099 29.263C108.982 29.3069 108.851 29.3654 108.734 29.4093C108.617 29.3508 108.515 29.2776 108.413 29.1898V24.1849C108.617 24.0678 108.866 23.9654 109.099 23.8629C109.333 24.0093 109.538 24.1995 109.684 24.4337V29.541C110.02 29.9508 110.429 30.302 110.867 30.6093H110.911C111.466 30.1849 112.064 29.7898 112.663 29.4239L112.561 29.263L112.211 29.4093C112.021 29.3069 111.845 29.1605 111.699 28.9996V24.1849C111.904 24.0678 112.152 23.9654 112.386 23.8629C112.62 24.0093 112.809 24.1995 112.97 24.4337V29.541C113.306 29.9508 113.715 30.302 114.153 30.5947H114.197C114.84 30.1118 115.336 29.7605 116.081 29.2922L115.979 29.1313C115.818 29.2044 115.658 29.2776 115.497 29.3508C115.307 29.263 115.146 29.1459 115.015 28.9996V23.9361C114.723 23.3946 114.285 22.941 113.744 22.6483H113.715C112.97 22.9556 112.284 23.38 111.67 23.8922C111.393 23.3654 110.954 22.9263 110.429 22.6483H110.399C109.669 22.941 108.982 23.3654 108.384 23.8776C108.091 23.3946 107.697 22.9849 107.244 22.6483H107.215C106.485 23.0288 105.798 23.4971 105.185 24.0385L105.302 24.1849C105.462 24.0678 105.652 23.9654 105.827 23.8629C106.017 24.0239 106.178 24.1995 106.339 24.3898V29.0435C106.193 29.1605 106.061 29.2483 105.93 29.3508V29.38C106.339 29.8483 106.806 30.2435 107.317 30.5947H107.347C107.96 30.1557 108.573 29.7752 109.202 29.4239ZM47.0943 29.2776L46.992 29.1166C46.7875 29.2044 46.6122 29.2776 46.437 29.3654C46.2909 29.2776 46.1448 29.1898 46.0134 29.0727V23.8629C45.7212 23.38 45.3415 22.9556 44.8741 22.619H44.8595C44.1291 22.9995 43.4426 23.4678 42.8291 24.0093L42.946 24.1556C43.1213 24.0385 43.2965 23.9361 43.4718 23.8337C43.6617 23.9946 43.8224 24.1703 43.9684 24.3751V28.9264C43.837 29.0435 43.7055 29.1459 43.5595 29.2483V29.2776C43.9831 29.7898 44.4943 30.2288 45.0639 30.5801H45.1078C45.7943 30.0971 46.3055 29.7605 47.0943 29.2776ZM87.9782 29.3361L87.8759 29.1752C87.686 29.263 87.5254 29.3215 87.3501 29.3947C87.2332 29.3361 87.131 29.263 87.0433 29.1752V24.1703C87.2478 24.0532 87.4961 23.9507 87.7299 23.8483C87.9636 23.9946 88.1681 24.1849 88.3141 24.419V29.5264C88.6501 29.9361 89.0591 30.2874 89.4972 30.5801H89.5411C90.1399 30.1118 90.768 29.6727 91.4253 29.2922L91.3231 29.1313C91.1624 29.2044 91.0017 29.2776 90.8411 29.3361C90.6512 29.2483 90.4905 29.1313 90.359 28.9849V23.9215C90.0669 23.38 89.6287 22.9263 89.0883 22.619H89.0591C88.3287 22.9117 87.6422 23.3361 87.0433 23.8483C86.7366 23.3654 86.3568 22.9556 85.904 22.619H85.8602C85.1299 22.9995 84.4434 23.4678 83.8299 24.0093L83.9467 24.1556C84.122 24.0385 84.2973 23.9361 84.4726 23.8337C84.6625 23.9946 84.8231 24.1702 84.9838 24.3605V29.0142C84.8524 29.1313 84.7209 29.2337 84.5748 29.3215V29.3508C84.9838 29.8191 85.4512 30.2142 85.9625 30.5654H86.0063C86.6636 30.1264 87.3063 29.702 87.9782 29.3361ZM63.5997 23.702C63.2638 23.2922 62.8694 22.9263 62.4166 22.6483H62.3874C61.6717 23.0727 61.2335 23.4239 60.5031 23.9507L60.6054 24.1117C60.7514 24.0239 60.8975 23.9507 61.0436 23.8629C61.2335 23.9654 61.4087 24.0971 61.5694 24.2434V29.3215C61.9346 29.8483 62.4166 30.2727 62.9716 30.5947H63.0155C63.5997 30.1557 64.257 29.7166 64.8851 29.3361C65.1919 29.8191 65.5862 30.2435 66.0244 30.5947H66.0536C66.6963 30.1264 67.4121 29.5996 68.0109 29.2191L67.9087 29.0581C67.7188 29.1459 67.5435 29.2337 67.3536 29.3215C67.193 29.2044 67.0469 29.0874 66.9154 28.941V24.1995C67.0615 24.0824 67.1783 23.9946 67.3244 23.8922V23.8629C66.9008 23.4239 66.4334 23.0141 65.9368 22.6483H65.893C65.1626 23.0873 64.6514 23.4093 63.9357 23.9068L64.0379 24.0678L64.5199 23.8044C64.6514 23.8776 64.7683 23.9507 64.8851 24.0532V29.0435C64.6368 29.1459 64.4177 29.2483 64.1986 29.3361C63.9795 29.2044 63.775 29.0435 63.6143 28.8532L63.5997 23.702ZM105.813 29.2922L105.711 29.1313C105.506 29.2191 105.331 29.2922 105.156 29.38C105.009 29.3069 104.863 29.2044 104.732 29.0874V23.8776C104.44 23.3946 104.06 22.9702 103.593 22.6337H103.578C102.848 23.0141 102.161 23.4824 101.548 24.0239L101.665 24.1703C101.84 24.0532 102.015 23.9507 102.19 23.8483C102.38 24.0093 102.541 24.1849 102.687 24.3898V28.9264C102.556 29.0435 102.424 29.1459 102.278 29.2483V29.2776C102.702 29.7898 103.213 30.2288 103.783 30.5801H103.812C104.469 30.1118 105.126 29.6874 105.813 29.2922ZM50.6437 29.3361L50.5414 29.1752C50.3515 29.263 50.1909 29.3215 50.0156 29.3947C49.8987 29.3361 49.7965 29.263 49.7088 29.1752V24.1556C49.9133 24.0385 50.1616 23.9361 50.3954 23.8337C50.6291 23.98 50.8189 24.1703 50.9796 24.4044V29.5118C51.3156 29.9215 51.7246 30.2727 52.1628 30.5654H52.192C52.7908 30.0971 53.4189 29.6581 54.0762 29.2776L53.974 29.1166C53.8133 29.1898 53.6526 29.263 53.492 29.3215C53.3167 29.2337 53.1414 29.1166 53.0099 28.9703V23.9068C52.7178 23.3654 52.2796 22.9117 51.7392 22.6044H51.7246C50.9942 22.8971 50.3077 23.3215 49.7088 23.8337C49.4021 23.3507 49.0223 22.941 48.5695 22.6044H48.5403C47.81 22.9849 47.1235 23.4532 46.51 23.9946L46.6269 24.141C46.8021 24.0239 46.9774 23.9215 47.1527 23.819C47.3426 23.98 47.5032 24.1556 47.6639 24.3459V28.9996C47.5325 29.1166 47.401 29.2191 47.2549 29.3069V29.3361C47.6639 29.8044 48.1313 30.1996 48.6426 30.5508H48.6864C49.3145 30.1264 49.9718 29.702 50.6437 29.3361ZM118.272 27.5069V27.1264L121.354 25.4727V25.4142C120.697 24.5215 120.113 23.5702 119.572 22.6044H119.543C118.462 23.0727 117.352 23.4385 116.213 23.7459C116.286 24.2873 116.315 24.8288 116.315 25.3703V28.4288C116.928 29.2191 117.63 29.9361 118.389 30.5801H118.448C119.382 29.9508 120.361 29.38 121.354 28.8532L121.208 28.6337C120.741 28.8532 120.361 29.0581 119.981 29.2191C119.339 28.6922 118.784 28.1215 118.272 27.5069ZM82.4277 30.5654H82.4715C83.1142 30.0971 83.8299 29.5849 84.4288 29.1898L84.3265 29.0288C84.122 29.1166 83.9613 29.2044 83.7715 29.2922C83.6108 29.1752 83.4647 29.0581 83.3333 28.9117V25.0629C83.3041 24.6093 83.3333 24.141 83.4355 23.6873C82.6029 23.4824 81.3029 22.9702 80.7771 22.5898H80.7333C79.9591 23.4971 79.0535 24.2873 78.0311 24.9312V24.9751C78.5277 25.5605 79.1996 25.9849 79.9445 26.1898C79.3311 26.4825 78.7176 26.7459 78.0749 26.9508C78.1333 27.3605 78.1625 27.7703 78.1625 28.18V29.4093C78.5131 29.8922 78.9513 30.2874 79.4625 30.5654H79.5063C80.0906 30.141 80.7187 29.7313 81.3322 29.3361C81.6389 29.8191 82.0041 30.2288 82.4277 30.5654ZM123.764 30.6093C124.714 29.9654 125.765 29.4679 126.861 29.1605C126.803 28.8678 126.773 28.5752 126.773 28.2678V26.2776L124.86 25.4434H124.816L124.261 26.0581L123.677 25.7947V23.8629C124.188 24.4044 124.889 24.7117 125.634 24.6971C125.78 24.6971 125.912 24.6824 126.058 24.6532C126.583 24.0971 126.89 23.3946 126.949 22.6337C126.861 22.619 126.788 22.619 126.7 22.6337C126.7 22.78 126.686 22.9117 126.656 23.058C126.51 23.1166 126.35 23.1605 126.189 23.1605C125.692 23.1459 125.225 22.941 124.874 22.5898H124.831C123.881 23.219 122.83 23.6727 121.734 23.9507C121.792 24.302 121.822 24.6678 121.822 25.0337V26.863L123.604 27.6825H123.648L124.217 27.0532L124.889 27.3459V29.263C124.276 28.7508 123.501 28.4874 122.698 28.502C122.552 28.502 122.421 28.5166 122.274 28.5459C121.749 29.102 121.442 29.8191 121.383 30.5947C121.471 30.6093 121.544 30.6093 121.632 30.5947C121.632 30.4483 121.646 30.3166 121.676 30.1703C121.822 30.1118 121.982 30.0679 122.143 30.0679C122.713 30.0532 123.282 30.2435 123.706 30.6386H123.735V30.6093H123.764ZM70.2019 30.6093C71.1513 29.9654 72.203 29.4679 73.2985 29.1605C73.2401 28.8678 73.2109 28.5752 73.2109 28.2678V26.2776L71.2974 25.4434H71.2536L70.6985 26.0581L70.1143 25.7947V23.8629C70.6255 24.4044 71.3266 24.7117 72.0716 24.6971C72.2176 24.6971 72.3491 24.6824 72.4952 24.6532C73.021 24.0971 73.3277 23.3946 73.3862 22.6337C73.2985 22.619 73.2255 22.619 73.1378 22.6337C73.1378 22.78 73.1232 22.9117 73.094 23.058C72.948 23.1166 72.7873 23.1605 72.6266 23.1605C72.13 23.1459 71.6626 22.941 71.312 22.5898H71.2828C70.3334 23.219 69.2963 23.6727 68.1862 23.9507C68.2592 24.302 68.2738 24.6678 68.2738 25.0337V26.863L70.0559 27.6825H70.0997L70.6693 27.0532L71.3412 27.3459V29.263C70.757 28.7654 70.012 28.502 69.2525 28.502C69.1064 28.502 68.975 28.5166 68.8289 28.5459C68.3031 29.102 67.9817 29.8191 67.9379 30.5801C68.0255 30.5947 68.0986 30.5947 68.1862 30.5801C68.1862 30.4337 68.2008 30.302 68.23 30.1557C68.3761 30.0971 68.5368 30.0532 68.6974 30.0532C69.2379 30.0532 69.7637 30.2581 70.1581 30.624H70.1873L70.2019 30.6093ZM96.8152 28.5313C96.9028 28.2532 96.9174 28.0922 96.9174 27.4337V23.8629C96.9174 23.4532 96.8882 23.058 96.8006 22.6483L97.0635 22.5312C97.1365 22.9263 97.1657 23.3361 97.1657 23.7459V27.2434C97.1511 28.0922 97.0781 28.2678 96.8152 28.5313ZM59.247 30.2142L58.9986 30.3752C58.6043 30.0532 58.2829 29.6581 58.02 29.2337V23.9654C55.4785 22.5166 55.2009 22.3556 54.9526 22.2532L54.8942 21.9019H54.9088L58.2537 23.8776V29.1313C58.5312 29.5264 58.8672 29.8922 59.247 30.2142ZM98.6848 22.8239C98.6848 22.2385 98.6994 22.0483 98.9477 21.7995C99.0646 21.8141 99.2983 21.8434 99.4297 21.858V28.8239C99.0792 28.9264 98.714 28.9703 98.3489 28.9703C97.823 28.9703 97.3118 28.8825 96.8152 28.7069C97.5017 28.4288 98.2174 28.1215 98.7724 27.8581C98.714 27.463 98.6848 27.0532 98.6848 26.6434V22.8239ZM74.6131 23.4678C74.6131 22.7946 74.5839 22.2385 74.5547 21.9312L74.8468 21.7263H74.8614V28.5459L74.6423 28.7215H74.6131V23.4678ZM36.2708 21.4483C35.5989 22.3849 35.4966 22.5898 35.4966 23.7459V26.8483C35.4966 28.2678 35.4382 28.8386 34.4595 29.9654L34.4449 29.9508C35.2337 28.9117 35.2629 28.341 35.2629 26.9215V23.8044C35.2629 22.6629 35.3798 22.4434 36.2708 21.4483ZM41.5291 30.2142L41.2808 30.3752C40.8572 30.0971 40.4775 29.7459 40.1415 29.3508V22.7654C40.1561 22.2971 40.1123 21.8288 40.0247 21.3605L40.3168 21.1556C40.3752 21.6532 40.3898 22.1654 40.3752 22.6629V29.2483C40.7258 29.6288 41.1056 29.9508 41.5291 30.2142ZM36.373 20.8336C36.1247 21.0532 35.8034 21.1849 35.4674 21.1995C35.1022 21.1995 34.7955 21.0239 34.4888 21.0239C34.1966 21.0093 33.9191 21.1263 33.7146 21.3166C33.627 21.3897 33.5685 21.4775 33.5247 21.58H33.5101C33.5539 21.4044 33.627 21.2434 33.7584 21.1263C33.9775 20.9214 34.2697 20.819 34.5764 20.8336C34.927 20.8336 35.2629 21.0093 35.6281 21.0093C35.8764 20.9946 36.1393 20.9361 36.373 20.8336ZM43.8808 20.6873C44.1875 21.0678 44.5089 21.4336 44.8595 21.7702L44.655 21.8873C44.3044 21.5507 43.9977 21.1849 43.7055 20.8044L43.8808 20.6873ZM102.76 20.6727C103.067 21.0532 103.403 21.419 103.739 21.7702L103.549 21.8873C103.198 21.5507 102.877 21.1849 102.57 20.7897L102.76 20.6727ZM93.6163 22.7215C93.6747 22.3702 93.85 22.0483 94.0837 21.7995C94.5365 21.3458 95.223 21.1263 96.1141 21.1263C97.5163 21.1263 99.196 21.5654 100.292 21.5654C100.861 21.5654 101.329 21.3166 101.708 20.6434L101.738 20.658C101.329 21.4922 100.847 21.7702 100.219 21.7702C99.123 21.7702 97.4725 21.3312 96.041 21.3312C95.15 21.3312 94.5219 21.5507 94.0837 21.9897C93.8938 22.1946 93.7332 22.4434 93.6163 22.7215ZM76.6142 20.4532L76.5558 20.4239C75.6356 21.0093 74.9052 21.5068 74.3794 21.9166C74.4232 22.2385 74.4378 22.5459 74.4378 22.8678C74.248 23.3068 74.0289 23.7166 73.7805 24.1264L73.8098 24.1703H74.4378V28.8093C74.2918 28.9264 74.1749 28.9996 74.0289 29.102V29.1313C74.5839 29.7166 75.212 30.2288 75.9131 30.6386H75.9423C76.5704 30.1703 77.2277 29.7605 77.9142 29.3947L77.812 29.2337C77.6659 29.2922 77.5198 29.3508 77.3738 29.4239C77.0524 29.2483 76.7457 29.0581 76.4535 28.8386V24.1556H76.5412C76.921 24.1556 77.3007 24.1703 77.6805 24.1995C78.2648 23.4239 78.5277 22.9849 78.6299 22.7068L78.6007 22.6776C78.1187 22.7361 77.6367 22.7654 77.1547 22.7654H76.4682C76.4682 21.9897 76.512 21.2141 76.6142 20.4385M58.9986 30.5801H59.0279C59.6706 30.1118 60.3863 29.6288 60.9851 29.2337L60.8829 29.0727C60.6784 29.1605 60.5177 29.2483 60.3278 29.3361C60.1672 29.2191 60.0211 29.0874 59.9043 28.9264V24.9459C59.9043 24.0971 59.9335 23.6727 59.9627 23.3361C56.238 21.0239 55.1863 20.3068 54.6167 19.6775L54.5582 19.6922C54.5436 20.5849 54.6459 21.4775 54.8358 22.341C55.3908 22.5898 55.9459 22.8971 56.4571 23.219C55.8436 23.5263 55.1571 23.8337 54.4998 24.1117C54.5582 24.6532 54.5728 25.1947 54.5582 25.7361V29.2922C54.9234 29.8191 55.4054 30.2435 55.9605 30.5654H55.9897C56.574 30.141 57.2166 29.7166 57.8447 29.3215C58.1661 29.8044 58.5458 30.2288 58.9986 30.5801ZM44.6404 22.1068H44.6696C45.2538 21.6971 45.6628 21.419 46.174 20.9946V20.9654C45.8235 20.5117 45.4437 20.0873 45.0347 19.6629H45.0055C44.5235 20.0141 44.0269 20.3507 43.4864 20.8044V20.8336C43.837 21.2873 44.2168 21.7117 44.6404 22.1068ZM103.505 22.1068H103.534C104.118 21.6971 104.513 21.419 105.039 20.9946V20.9507C104.688 20.4971 104.308 20.0727 103.899 19.6629H103.87C103.388 20.0141 102.877 20.3507 102.351 20.8044V20.8336C102.702 21.2873 103.081 21.7117 103.505 22.1068ZM38.2134 29.541L38.2281 29.5118V25.4288H40.0101V29.4386C40.3752 29.8776 40.7988 30.2581 41.2808 30.5801H41.31C41.9966 30.0679 42.6977 29.5996 43.4426 29.1752L43.3404 28.9996C43.1359 29.0874 42.9606 29.1752 42.7707 29.263C42.5224 29.1459 42.3179 28.9703 42.1572 28.7508V22.019C42.1426 21.2288 42.2157 20.4532 42.4201 19.6922L42.3617 19.6629C41.4853 20.1605 40.6381 20.7166 39.864 21.3605C39.9808 21.8288 40.0247 22.3117 40.0101 22.8093V24.0532H38.2427V21.9019C38.2427 20.6727 38.3303 20.3361 38.5348 19.6922L38.491 19.6775C38.0674 20.2629 37.9067 20.7751 37.9067 22.019V29.263C37.6146 29.102 37.2786 29.0288 36.9427 29.0435C36.4899 29.0435 36.0225 29.1313 35.5989 29.3069L35.5843 29.2922C37.1618 27.8874 37.2056 27.6386 37.2056 26.6142V22.2532C37.2056 20.9507 37.3663 20.3946 37.7168 19.7653L37.673 19.7214C37.3663 19.9117 37.0303 19.9995 36.6797 20.0141C36.1977 20.0141 35.5404 19.7653 34.9708 19.7653C34.5472 19.7507 34.1382 19.9117 33.8315 20.2044C33.5539 20.4824 33.3933 20.8629 33.3933 21.258C33.3933 21.4776 33.4225 21.6824 33.4955 21.8873H33.5393C33.5831 21.7263 33.6708 21.5946 33.7876 21.4776C33.9629 21.3019 34.2112 21.2141 34.4595 21.2141C34.8393 21.2141 35.1022 21.3751 35.4528 21.3751C35.8034 21.3751 36.0955 21.258 36.6505 20.8629L36.6651 20.8775C35.2191 22.3995 35.1607 22.6629 35.1607 23.8337V24.0385C34.9416 24.0239 34.7225 24.0093 34.4888 23.98C34.0652 24.4483 33.6562 24.9605 33.291 25.4873L33.3202 25.5166C33.7146 25.4581 34.109 25.4288 34.5034 25.4288H35.1461V27.4337C35.1461 28.663 34.9708 29.1752 33.9337 30.5069L33.9775 30.5654C34.4888 30.3313 35.0292 30.2142 35.5843 30.2142C35.964 30.1996 36.3292 30.3313 36.6067 30.5801H36.6359C37.1033 30.1703 37.6292 29.8191 38.1842 29.541M94.8287 25.5898C94.8287 24.5507 95.2523 23.5556 96.0118 22.8239L95.9826 22.7654C95.2815 22.9995 94.6388 23.3946 94.1129 23.9215C93.4556 24.5946 93.0905 25.4873 93.0905 26.4239C93.0613 27.5069 93.4995 28.5605 94.2736 29.3069C95.1062 30.141 96.2747 30.624 97.7062 30.624C98.8893 30.6679 100.029 30.2142 100.876 29.3947C101.533 28.7215 101.913 27.8142 101.927 26.8776H101.825C101.372 27.7264 100.642 28.3703 99.7511 28.7069V21.9019C99.9994 21.9166 100.131 21.9166 100.204 21.9166C101.139 21.9166 101.854 21.3312 102.22 19.5166L102.132 19.4727C101.781 19.9556 101.299 20.1166 100.642 20.1166C99.5612 20.1166 97.7938 19.6775 96.4646 19.6775C95.4275 19.6775 94.5511 19.9995 93.9815 20.5702C93.5725 20.9653 93.3388 21.5215 93.3534 22.1068C93.3534 22.4434 93.4264 22.7946 93.5579 23.102H93.6017C93.6894 22.7361 93.8646 22.3849 94.1275 22.1068C94.5511 21.6824 95.15 21.4483 95.9972 21.4483C96.8882 21.4775 97.7646 21.5654 98.641 21.7263C97.9837 21.9751 97.1219 22.3117 96.5669 22.5751C96.6545 23.0288 96.6983 23.4824 96.6837 23.9507V27.6825C96.6837 28.1947 96.6691 28.3996 96.523 28.5898C96.2601 28.4727 96.0264 28.3117 95.8073 28.1069C95.15 27.4483 94.7848 26.541 94.8141 25.619" fill="white"/>
</svg>
