<svg width="80" height="80" viewBox="0 0 80 80" fill="none" xmlns="http://www.w3.org/2000/svg">
<path fill-rule="evenodd" clip-rule="evenodd" d="M19.375 49.9353V73.3459C19.375 74.6918 17.5041 75.7812 15.1927 75.7812H8.40104C6.08969 75.7812 4.21875 74.6918 4.21875 73.3459V49.9353C4.21875 48.5914 6.08969 47.5 8.40104 47.5H15.1927C17.5041 47.5 19.375 48.5914 19.375 49.9353Z" fill="url(#paint0_linear_11792_25006)"/>
<path fill-rule="evenodd" clip-rule="evenodd" d="M57.0312 49.3006V71.1681C57.0312 72.3917 56.5863 73.5642 55.7934 74.4298C55.0005 75.2955 53.9266 75.7812 52.8058 75.7812H45.9442C44.8234 75.7812 43.7495 75.2955 42.9566 74.4298C42.1637 73.5642 41.7188 72.3917 41.7188 71.1681V49.3006C41.7188 48.077 42.1637 46.9046 42.9566 46.0389C43.7495 45.1733 44.8234 44.6875 45.9442 44.6875H52.8058C53.9266 44.6875 55.0005 45.1733 55.7934 46.0389C56.5863 46.9046 57.0312 48.077 57.0312 49.3006Z" fill="url(#paint1_linear_11792_25006)"/>
<path fill-rule="evenodd" clip-rule="evenodd" d="M38.2812 39.3048V71.3202C38.2812 73.7856 36.391 75.7812 34.0558 75.7812H27.1942C24.859 75.7812 22.9688 73.7856 22.9688 71.3202V39.3048C22.9688 38.1216 23.4137 36.9878 24.2066 36.1506C24.9995 35.3135 26.0734 34.8438 27.1942 34.8438H34.0558C36.391 34.8438 38.2812 36.8429 38.2812 39.3048Z" fill="url(#paint2_linear_11792_25006)"/>
<path fill-rule="evenodd" clip-rule="evenodd" d="M75.7812 32.2045V70.4518C75.7812 73.3971 73.9103 75.7812 71.599 75.7812H64.8073C62.4959 75.7812 60.625 73.3971 60.625 70.4518V32.2045C60.625 30.7909 61.0654 29.4364 61.8502 28.4363C62.635 27.4362 63.698 26.875 64.8073 26.875H71.599C73.9103 26.875 75.7812 29.2633 75.7812 32.2045Z" fill="url(#paint3_linear_11792_25006)"/>
<path d="M39.0879 32.4607C38.6177 32.4592 38.1585 32.3206 37.7675 32.0621C37.3765 31.8037 37.0713 31.4368 36.8899 31.0076C36.7085 30.5783 36.659 30.1056 36.7476 29.6486C36.8362 29.1916 37.059 28.7707 37.3881 28.4384C39.1811 26.6551 40.1877 24.2416 40.1877 21.7258C40.1877 19.2101 39.1811 16.7966 37.3881 15.0133C36.9545 14.5648 36.7164 13.9655 36.7251 13.3448C36.7338 12.7241 36.9886 12.1316 37.4347 11.6951C37.8807 11.2587 38.4822 11.0132 39.1094 11.0116C39.7366 11.01 40.3394 11.2524 40.7876 11.6867C43.4659 14.3555 44.969 17.9643 44.969 21.7258C44.969 25.4874 43.4659 29.0962 40.7876 31.765C40.5648 31.9863 40.2998 32.1617 40.0081 32.2811C39.7163 32.4005 39.4036 32.4615 39.0879 32.4607ZM23.8427 31.7769C24.2935 31.3357 24.5487 30.7354 24.5523 30.108C24.5559 29.4806 24.3075 28.8775 23.8619 28.4313C22.0689 26.648 21.0623 24.2345 21.0623 21.7188C21.0623 19.203 22.0689 16.7895 23.8619 15.0062C24.0886 14.7866 24.2689 14.5245 24.3923 14.2353C24.5156 13.946 24.5796 13.6353 24.5804 13.3213C24.5812 13.0073 24.5188 12.6963 24.397 12.4064C24.2751 12.1165 24.0962 11.8535 23.8706 11.6328C23.645 11.412 23.3773 11.2379 23.083 11.1206C22.7887 11.0032 22.4738 10.9451 22.1566 10.9494C21.8394 10.9538 21.5262 11.0206 21.2353 11.1459C20.9444 11.2713 20.6817 11.4527 20.4624 11.6796C17.7841 14.3484 16.281 17.9572 16.281 21.7188C16.281 25.4803 17.7841 29.0891 20.4624 31.7579C20.9081 32.204 21.5147 32.4566 22.1486 32.4602C22.7825 32.4637 23.3919 32.2179 23.8427 31.7769ZM48.3923 37.5027C52.3436 33.1758 54.5312 27.5511 54.5312 21.7188C54.5312 15.8864 52.3436 10.2617 48.3923 5.93476C47.9668 5.46946 47.3721 5.19048 46.7388 5.15919C46.1055 5.12791 45.4856 5.34689 45.0155 5.76795C44.5453 6.18902 44.2635 6.77768 44.2319 7.40444C44.2003 8.0312 44.4215 8.64471 44.8469 9.11001C48.0027 12.5669 49.7498 17.0599 49.7498 21.7188C49.7498 26.3776 48.0027 30.8706 44.8469 34.3275C44.4215 34.7928 44.2003 35.4063 44.2319 36.0331C44.2635 36.6598 44.5453 37.2485 45.0155 37.6695C45.4856 38.0906 46.1055 38.3096 46.7388 38.2783C47.3721 38.247 47.9668 37.968 48.3923 37.5027ZM16.2333 37.6684C16.7033 37.2475 16.9852 36.6592 17.017 36.0327C17.0488 35.4062 16.828 34.7929 16.4031 34.3275C13.2473 30.8706 11.5002 26.3776 11.5002 21.7188C11.5002 17.0599 13.2473 12.5669 16.4031 9.11001C16.6137 8.87962 16.7765 8.61041 16.882 8.31777C16.9875 8.02513 17.0338 7.71478 17.0181 7.40444C17.0025 7.0941 16.9252 6.78985 16.7908 6.50906C16.6563 6.22827 16.4673 5.97644 16.2345 5.76795C16.0017 5.55946 15.7297 5.3984 15.434 5.29394C15.1384 5.18949 14.8248 5.14371 14.5112 5.15919C13.8779 5.19048 13.2832 5.46946 12.8577 5.93476C8.9064 10.2617 6.71875 15.8864 6.71875 21.7188C6.71875 27.5511 8.9064 33.1758 12.8577 37.5027C13.2833 37.9675 13.8779 38.2461 14.5109 38.2771C15.1439 38.3082 15.7634 38.0892 16.2333 37.6684ZM30.625 18.1697C29.9158 18.1697 29.2225 18.3778 28.6327 18.7678C28.043 19.1578 27.5834 19.7121 27.312 20.3606C27.0406 21.0091 26.9696 21.7227 27.1079 22.4111C27.2463 23.0996 27.5878 23.732 28.0893 24.2283C28.5908 24.7247 29.2298 25.0627 29.9254 25.1996C30.621 25.3366 31.342 25.2663 31.9973 24.9977C32.6525 24.7291 33.2126 24.2742 33.6066 23.6905C34.0007 23.1069 34.211 22.4207 34.211 21.7188C34.211 20.7775 33.8332 19.8747 33.1607 19.2092C32.4882 18.5436 31.5761 18.1697 30.625 18.1697Z" fill="url(#paint4_linear_11792_25006)"/>
<defs>
<linearGradient id="paint0_linear_11792_25006" x1="11.7969" y1="42.1998" x2="11.7969" y2="76.3324" gradientUnits="userSpaceOnUse">
<stop stop-color="#1BFF94"/>
<stop offset="1" stop-color="#1AFF2B"/>
</linearGradient>
<linearGradient id="paint1_linear_11792_25006" x1="49.375" y1="38.8602" x2="49.3751" y2="76.3872" gradientUnits="userSpaceOnUse">
<stop stop-color="#1BFF94"/>
<stop offset="1" stop-color="#1AFF2B"/>
</linearGradient>
<linearGradient id="paint2_linear_11792_25006" x1="30.625" y1="27.1717" x2="30.6251" y2="76.579" gradientUnits="userSpaceOnUse">
<stop stop-color="#1BFF94"/>
<stop offset="1" stop-color="#1AFF2B"/>
</linearGradient>
<linearGradient id="paint3_linear_11792_25006" x1="68.2031" y1="17.7095" x2="68.2033" y2="76.7343" gradientUnits="userSpaceOnUse">
<stop stop-color="#1BFF94"/>
<stop offset="1" stop-color="#1AFF2B"/>
</linearGradient>
<linearGradient id="paint4_linear_11792_25006" x1="30.625" y1="-1.05168" x2="30.625" y2="38.9268" gradientUnits="userSpaceOnUse">
<stop stop-color="#1BFF94"/>
<stop offset="1" stop-color="#1AFF2B"/>
</linearGradient>
</defs>
</svg>
